<svg xmlns="http://www.w3.org/2000/svg" xml:space="preserve" width="694.488" height="255.118"><g style="fill:#fff"><path d="M21.421 121.359h602.824v117.43H21.421z" style="fill:#fff"/><path d="M36.689 51.053h486.895v91.995H36.689z" style="fill:#fff"/><rect width="370.957" height="45.29" x="149.549" y="24.593" ry=".035" style="fill:#fff"/><rect width="76.795" height="31.077" x="44.843" y="27.53" ry=".035" style="fill:#fff"/><rect width="177.625" height="48.589" x="498.707" y="68.897" ry=".035" style="fill:#fff"/><rect width="136.879" height="47.107" x="501.699" y="95.834" ry=".035" style="fill:#fff"/></g><path d="M320.733 248.11c-98.662 0-197.323-.015-295.985.051-4.441.003-8.328-1.582-11.542-4.043-6.115-4.683-9.824-10.835-9.532-19.05.293-8.239.172-16.499.027-24.746-.097-5.523 2.206-9.993 5.613-13.99 3.833-4.497 5.617-9.157 3.32-15.113-2.933-7.605-3.232-15.5-1.463-23.492a2683.685 2683.685 0 0 0 6.985-32.481c1.942-9.319 3.682-18.68 5.626-27.998 1.595-7.643 3.406-15.24 5.036-22.876 2.024-9.48 3.906-18.991 5.95-28.467 1.772-8.215 5.353-15.421 13.091-19.498 2.933-1.545 6.475-2.617 9.765-2.686 13.826-.292 27.663-.185 41.495-.095 6.158.04 11.845 2.099 17.252 4.879 7.656 3.935 13.21 10.122 18.12 17.037 2.222 3.129 5.47 2.919 7.451-.431 2.096-3.545 3.688-7.391 5.83-10.904 3.401-5.577 8.737-8.645 14.838-10.507.615-.188 1.321-.099 1.985-.099 14.583-.004 29.167-.135 43.746.1 3.168.051 6.335 1.342 9.464 2.203 3.454.95 6.89 2.57 10.49 1.134 2.457-.979 4.711-2.477 7.033-3.783 9.14-5.143 19.044-7.054 29.347-6.067 9.808.94 18.891 4.235 26.343 11.002 3.486 3.165 6.868 2.845 10.884.993 7.396-3.409 15.117-6.037 23.25-7.038 4.733-.582 9.517-.869 14.287-1.016 9.742-.3 19.437.093 28.981 2.418 4.027.981 8.124 1.683 12.199 2.461 3.554.679 6.786-.75 10.105-1.627 1.326-.35 2.689-.631 4.052-.756 1.405-.129 2.831-.018 4.247-.03 18.638-.164 37.276-.444 55.914-.462 14.383-.014 28.78-.002 43.145.604 6.185.261 12.033 2.824 17.229 6.385 7.147 4.9 12.76 11.124 15.946 19.3 1.134 2.911 2.105 5.888 3.081 8.858.755 2.295 2.789 3.728 5.312 3.832 11.34.469 22.482 1.956 32.815 7.052 3.558 1.755 6.767 1.8 10.082-.616 3.299-2.405 7.072-3.492 11.224-3.475 15.666.063 31.332.073 46.997-.019a36.921 36.921 0 0 0 8.271-.998c7.251-1.727 14.64-2.231 21.845-.813 9.031 1.777 16.031 6.619 18.924 16.054 1.463 4.774 1.233 9.405.081 14.219-2.065 8.622-3.607 17.369-5.695 25.984-1.625 6.704-3.116 13.529-8.871 18.369-5.341 4.492-11.423 5.863-18.142 5.029-2.011-.249-3.96-1.048-5.971-1.248-2.976-.295-4.745 1.222-5.428 4.1-1.107 4.668-2.353 9.305-3.4 13.987-1.277 5.711-2.409 11.454-3.602 17.184-1.161 5.578-2.389 11.143-3.453 16.74-.659 3.465-.981 6.854.299 10.425 1.275 3.557 2.146 7.4 2.362 11.166.377 6.541.127 13.12.103 19.682-.004.977-.297 1.953-.306 2.931-.057 6.294-3.26 11.054-7.866 14.761-2.792 2.247-8.555 5.48-12.201 5.48s-197.99.004-296.985.004zM179.025 76.301l.686.037c-.104.978-.125 1.973-.326 2.931-.85 4.058-1.795 8.096-2.628 12.158-1.39 6.784-2.694 13.586-4.086 20.369-.752 3.663-1.65 7.297-2.413 10.958-1.396 6.692-2.695 13.405-4.12 20.091-1.224 5.744-2.727 11.384-1.956 17.415 1.112 8.692 5.864 14.277 13.795 17.387 6.641 2.604 13.638 2.034 20.54 1.861 1.688-.042 2.93-1.278 3.302-3.394.888-5.046 2.137-10.029 3.209-15.043.765-3.579 1.475-7.17 2.221-10.753.98-4.704 1.961-9.407 2.962-14.107.829-3.892 1.72-7.77 2.526-11.666 1.268-6.131 2.429-12.285 3.744-18.406 1.349-6.279 2.903-12.514 4.235-18.796 1.622-7.647 2.887-15.375 4.712-22.971 1.834-7.633 1.001-14.658-3.765-20.934-4.175-5.498-9.832-8.698-16.804-8.792-12.164-.164-24.331-.014-36.497-.08-1.835-.01-2.956.64-3.675 2.267-1.115 2.522-2.356 4.99-3.429 7.529-4.707 11.134-9.35 22.294-14.061 33.427-3.442 8.135-6.948 16.243-10.434 24.359-2.066 4.812-4.157 9.613-6.222 14.425-2.273 5.296-4.517 10.604-6.813 15.89-.251.577-.764 1.041-1.156 1.557-.276-.626-.769-1.243-.794-1.88-.225-5.632-.33-11.268-.544-16.9-.295-7.774-.684-15.544-.98-23.318-.365-9.604-.555-19.217-1.058-28.814-.289-5.514-.676-11.071-3.042-16.229-3.005-6.552-10.928-12.098-18.29-12.223-12.162-.206-24.331-.056-36.497-.056-4.217 0-4.759.384-5.614 4.444-.938 4.453-1.733 8.936-2.682 13.386-.881 4.132-1.922 8.23-2.823 12.359-1.298 5.953-2.504 11.927-3.802 17.881-1.369 6.278-2.846 12.533-4.188 18.817-1.139 5.332-2.11 10.699-3.235 16.034-1.04 4.931-2.213 9.833-3.275 14.76-1.029 4.771-1.953 9.566-2.993 14.335-1.224 5.612-2.472 11.13-.579 16.93 2.134 6.541 6.286 11.195 12.367 14.003 5.284 2.44 11.082 2.202 16.746 1.939 1.013-.047 2.526-1.429 2.831-2.479 1.198-4.126 2.036-8.36 2.952-12.565 1.246-5.722 2.524-11.438 3.639-17.186 1.598-8.236 3.016-16.507 4.597-24.747 1.425-7.431 2.98-14.836 4.45-22.258 1.519-7.67 2.993-15.35 4.534-23.015.089-.444.606-.801 1.303-1.673.271 1.951.54 3.295.628 4.651.215 3.297.315 6.601.517 9.899.483 7.903 1.016 15.802 1.493 23.705.363 6.016.628 12.038 1.016 18.052.451 6.987 1.058 13.965 1.469 20.954.422 7.178.734 14.364 1.003 21.55.133 3.559 1.692 5.228 5.259 5.231 10.083.008 20.17-.167 30.246.094 3.57.092 5.258-1.564 6.524-4.389 1.884-4.203 3.755-8.413 5.689-12.593 3.913-8.455 7.929-16.863 11.785-25.344 4.628-10.179 9.076-20.44 13.706-30.618 4.634-10.184 9.392-20.307 14.095-30.456zm162.843-44.632c-10.319.009-20.157 1.894-29.615 5.941-8.092 3.462-14.861 8.574-20.31 15.506-4.229 5.381-6.495 11.475-7.863 18.142-1.237 6.028-1.029 11.958-.303 17.937.942 7.765 4.72 14.148 10.035 19.704 5.359 5.601 12.105 9.156 18.861 12.698 4.036 2.116 8.121 4.166 11.998 6.549 2.913 1.791 5.383 4.394 5.998 7.828 1.291 7.205-3.449 12.791-10.843 13.104-3.51.148-7.032.024-10.548.028-5.768.006-11.115-1.912-16.249-4.146-4.684-2.038-8.974-4.966-13.56-7.254-.943-.471-2.97-.301-3.541.378-.843 1.003-.85 2.721-1.178 4.143-1.115 4.832-2.23 9.664-3.318 14.503-.909 4.042-1.839 8.08-2.639 12.144-.304 1.542.026 2.867 1.893 3.47 6.789 2.194 13.434 4.948 20.344 6.621 6.642 1.608 13.517 2.584 20.341 3.003 5.64.346 11.357-.506 17.038-.863 6.61-.416 12.913-2.091 19.083-4.471 10.492-4.046 18.799-10.642 24.407-20.452 2.559-4.477 4.336-9.317 4.779-14.44.38-4.398.365-8.878.003-13.279-.414-5.039-1.771-9.931-4.249-14.408-3.797-6.858-9.482-11.906-15.988-16.036-6.958-4.417-14.17-8.438-21.058-12.958-4.771-3.131-6.451-6.71-5.701-11.964.623-4.368 3.805-6.16 7.281-7.434 6.021-2.207 12.229-.913 18.329-.23 3.295.369 6.48 1.697 9.774 2.094 4.852.585 9.287-1.002 13.022-4.058 6.952-5.688 8.241-13.736 8.564-22.038.029-.742-1.128-2.001-1.954-2.231-7.031-1.965-14.033-4.206-21.203-5.455-7.114-1.24-14.412-1.427-21.63-2.076zm-99.855 195.44h213.483c3.846 0 3.941-.084 4.258-3.956.041-.497.008-.999.008-1.499v-17.749c0-4.297 0-4.298-4.294-4.298H28.752c-.583 0-1.174.059-1.749-.011-1.657-.202-2.194.724-2.259 2.156-.172 3.805-.462 7.61-.468 11.416-.006 3.471.362 6.942.445 10.416.085 3.522.02 3.524 3.559 3.524l213.733.001zm205.1-192.51c-16.411 0-32.823.013-49.234-.019-1.806-.004-2.8.375-3.213 2.471-1.664 8.451-3.669 16.835-5.353 25.283-1.031 5.175.041 6.267 5.368 6.267 9.997 0 19.994.055 29.99-.041 2.345-.022 3.21 1.068 3.047 3.108-.121 1.524-.646 3.014-.951 4.527-1.558 7.737-3.046 15.49-4.669 23.213-1.705 8.109-3.596 16.179-5.296 24.289-2.036 9.715-4.208 19.414-5.799 29.205-.607 3.739-.444 7.906.588 11.531 1.216 4.273 4.21 7.867 7.885 10.564 1.932 1.418 4.08 3.201 6.288 3.457 6.465.75 13.007.861 19.522 1.131 2.793.116 4.138-1.204 4.469-4.055.067-.573.036-1.163.157-1.723.936-4.362 1.936-8.71 2.842-13.079.926-4.465 1.702-8.962 2.667-13.418.857-3.955 1.959-7.857 2.818-11.812 1.14-5.248 2.138-10.526 3.216-15.787.751-3.663 1.543-7.318 2.304-10.98 1.306-6.291 2.629-12.578 3.893-18.877 1.075-5.355 2.239-10.7 3.061-16.096.648-4.253 1.406-5.158 5.74-5.158 11.246 0 22.493-.038 33.739.039 1.771.012 2.985-.589 3.374-2.193.556-2.294 1.125-4.659 1.14-6.997.047-7.233-2.4-13.759-7.404-18.88-3.526-3.608-7.918-6.078-13.456-6.024-15.575.154-31.155.054-46.733.054zm66.163 106.539c1.964-.351 3.861-.812 5.785-1.012 7.024-.729 14.129-.956 21.067-2.158 7.559-1.309 15.072-3.13 22.061-6.552 6.905-3.381 12.341-8.203 15.398-15.416 2.657-6.267 2.195-12.816 1.101-19.207-1.642-9.601-8.007-15.552-16.674-19.195-4.758-2-9.747-2.968-14.922-3.693-7.469-1.045-14.71-.604-21.994.717-8.206 1.489-15.954 4.189-23.174 8.502-8.323 4.972-14.668 11.748-19.676 19.955-4.584 7.512-8.089 15.545-9.307 24.186-1.132 8.037-1.228 16.204.734 24.324 3.033 12.55 10.435 21.13 22.231 26.04 4.764 1.983 9.812 2.747 14.885 3.681 8.241 1.517 16.306.603 24.343-.503 5.836-.803 11.565-2.586 17.239-4.276 3.027-.902 6.626-1.434 8.037-4.917.843-2.08 1.18-4.377 1.641-6.598 1.107-5.323 2.223-10.646 3.193-15.995.462-2.545-.064-2.855-2.66-2.054-3.488 1.077-7.031 1.999-10.461 3.235-7.532 2.713-15.283 4.015-23.234 3.31-3.256-.289-6.654-1.107-9.572-2.533-3.713-1.81-6.283-4.923-6.041-9.841zm121.176-65.037h-2.897c-11.75 0-23.501.091-35.249-.072-2.54-.035-3.69 1.132-4.295 3.139-.586 1.944-.859 3.985-1.239 5.989-.684 3.603-1.308 7.219-2.028 10.815-.782 3.906-1.7 7.784-2.458 11.694-1.008 5.199-1.868 10.426-2.888 15.622-.797 4.064-1.842 8.08-2.596 12.151-1.099 5.936-1.908 11.928-3.073 17.85-1.445 7.342.621 13.583 5.506 19.012 4.688 5.211 10.737 7.279 17.599 7.303 4.54.016 9.081.003 13.528.003.434-1.357.754-2.106.909-2.886 1.029-5.191 1.937-10.407 3.049-15.579 1.59-7.394 3.187-14.792 5.03-22.125 1.757-6.99 3.043-14.18 7.908-20.001 3.61-4.32 8.168-7.215 13.524-8.288 4.872-.976 9.963-.743 14.729 1.055 1.669.629 2.245-.167 2.55-1.289a373.005 373.005 0 0 0 3.201-12.763c1.444-6.169 2.711-12.382 4.247-18.528.957-3.831.294-4.941-3.674-5.102-.414-.017-.83-.028-1.239-.085-5.835-.803-11.33.076-16.521 3-4.471 2.518-7.193 6.664-10.28 10.489-1.526 1.891-3.007 3.818-4.508 5.729l-.593-.345 1.758-16.788zM243.863 179.606h3.749c5.037 0 5.145.03 6.429-4.635 1.057-3.84 1.873-7.749 2.7-11.648 1.707-8.048 3.328-16.114 5.03-24.163.942-4.457 2.023-8.885 2.958-13.344 1.185-5.649 2.377-11.299 3.393-16.979.888-4.967 2.207-9.932 1.129-15.052-1.78-8.454-5.73-13.59-14.098-16.197-7.104-2.213-14.402-1.324-21.636-1.438-.571-.009-1.501.529-1.665 1.016-.519 1.536-.772 3.165-1.092 4.765-.735 3.671-1.421 7.353-2.18 11.02-.741 3.581-1.566 7.145-2.321 10.723-1.075 5.094-2.108 10.198-3.182 15.292-.753 3.572-1.564 7.132-2.318 10.704-1.078 5.101-2.156 10.203-3.181 15.314-1.058 5.274-2.474 10.427-1.423 16.004 1.51 8.009 5.973 13.299 13.182 16.678 4.67 2.189 9.594 1.972 14.526 1.94zm15.421-152.06c-3.693.862-7.563 1.29-11.03 2.705-3.641 1.485-6.956 3.709-9.592 6.936-3.439 4.21-4.512 8.934-3.856 14.073.602 4.719 2.715 8.799 6.511 11.853 3.228 2.597 6.705 4.592 11.031 4.538 4.178-.052 8.497.568 12.5-.29 4.993-1.07 9.255-3.831 13.159-7.533 6.71-6.366 5.789-18.442.015-24.718-5.029-5.465-11.533-6.985-18.738-7.564zm320.492 183.989c-2.788 0-5.313.052-7.835-.013-3.42-.088-6.839-.263-10.257-.408-2.172-.092-1.553 1.708-1.7 2.786-.043.314 1.178 1.128 1.84 1.153 3.244.122 6.494.031 9.742.062 5.242.049 4.659-.826 4.704 4.852.021 2.679-1.201 3.522-3.644 3.556-5.854.08-11.712-.105-17.568-.165-2.41-.025-3.277-.842-3.286-3.25-.014-3.914-.004-7.829-.004-11.743 0-5.255 0-5.255 5.331-5.255h22.239c-.634-1.752 1.444-4.412-2.029-4.464a749.21 749.21 0 0 0-22.736-.001c-3.907.06-6.805 3.304-6.806 7.206-.002 4.831.157 9.668-.047 14.49-.185 4.36 2.602 7.076 6.862 7.215 6.323.206 12.66.151 18.986.014 3.576-.077 5.873-2.168 6.149-5.7.27-3.464.059-6.963.059-10.335zm37.49 15.957c0-7.745.112-15.314-.071-22.876-.053-2.177-1.429-4.206-3.576-4.911-2.138-.702-4.482-.983-6.747-1.052-4.91-.15-9.829-.126-14.741-.022-4.413.093-7.296 3.257-7.342 7.252-.074 6.413.004 12.827-.038 19.241-.01 1.514.122 2.561 2.092 2.53 1.85-.029 1.961-1.033 1.939-2.427-.044-2.748-.118-5.504.066-8.241.044-.658 1.041-1.783 1.615-1.793a733.455 733.455 0 0 1 21.238-.043c1.296.015 2.061.574 1.715 2.367-.413 2.134-.141 4.404-.142 6.614-.003 3.571.036 3.599 3.992 3.361zm-100.829-12.386c7.326 0 14.48.008 21.634-.019.453-.002.953-.191 1.351-.427 2.746-1.628 4.639-6.551 3.766-9.706-1.086-3.926-4.034-6.328-7.897-6.34-7.497-.023-14.995.052-22.491-.047-1.979-.026-2.6.583-2.576 2.57.098 7.913.05 15.827.031 23.741-.004 1.488-.14 2.817 2.088 2.778 2.102-.037 1.927-1.315 1.925-2.684-.01-6.414.079-12.83-.05-19.242-.043-2.148.709-2.698 2.74-2.662 6.162.109 12.328.035 18.492.041 3.031.003 3.299.278 3.315 3.273.023 4.321-.234 4.704-3.435 4.719-5.248.024-10.496.006-15.744.007-3.503.001-3.503.003-3.149 3.998zm-38.174-.071h27.391c.232-3.924.232-3.925-3.277-3.926h-24.111c0-2.094-.247-3.96.104-5.706.176-.877 1.329-1.956 2.238-2.196 1.402-.37 2.974-.099 4.474-.099h21.059c-1.175-1.658 1.269-4.427-2.338-4.472-7.415-.092-14.843-.258-22.245.062-4.29.185-7.511 2.643-7.344 7.702.208 6.326.084 12.665.027 18.998-.014 1.566.435 2.272 2.124 2.249 1.63-.022 1.937-.815 1.915-2.198-.052-3.326-.017-6.652-.017-10.414z"/><path d="M540.825 104.663c-.15 4.357-2.37 7.34-5.556 9.353-3.607 2.279-7.568 3.983-12.001 4.114-.714.021-1.491.204-2.115.541-1.897 1.024-3.858.504-4.971-.777-.762-.876-.788-3.004-.303-4.244 2.098-5.369 4.874-10.269 10.017-13.509 3.24-2.041 6.63-2.475 10.232-1.99 2.242.301 5.198 4.107 4.697 6.512zM601.363 203.108c3.077 0 6.159.097 9.23-.037 1.756-.077 2.393.884 2.633 2.271.252 1.455.418 2.952.353 4.418-.021.468-.89 1.272-1.39 1.288-7.368.224-14.739.351-22.11.451-.391.005-1.122-.427-1.129-.671-.06-2.052-.227-4.156.176-6.135.14-.687 1.769-1.452 2.76-1.513 3.149-.194 6.317-.072 9.477-.072z"/><circle cx="42.735" cy="213.358" r="6.487"/><circle cx="59.745" cy="213.358" r="6.487"/><circle cx="75.947" cy="213.358" r="6.487"/><circle cx="92.717" cy="213.358" r="6.487"/><circle cx="109.268" cy="213.358" r="6.487"/><circle cx="125.751" cy="213.358" r="6.487"/><circle cx="142.247" cy="213.358" r="6.487"/><circle cx="158.978" cy="213.358" r="6.487"/><circle cx="183.563" cy="213.358" r="6.487"/><circle cx="200.74" cy="213.358" r="6.487"/><circle cx="217.25" cy="213.358" r="6.487"/><circle cx="233.75" cy="213.358" r="6.487"/><circle cx="250.313" cy="213.358" r="6.487"/><circle cx="266.248" cy="213.358" r="6.487"/><circle cx="283.298" cy="213.358" r="6.487"/><circle cx="300.504" cy="213.358" r="6.487"/><circle cx="325.247" cy="213.358" r="6.487"/><circle cx="341.571" cy="213.358" r="6.487"/><circle cx="358.25" cy="213.358" r="6.487"/><circle cx="374.754" cy="213.358" r="6.487"/><circle cx="391.259" cy="213.358" r="6.487"/><circle cx="407.76" cy="213.358" r="6.487"/><circle cx="424.751" cy="213.358" r="6.487"/><circle cx="441.512" cy="213.358" r="6.487"/><circle cx="42.735" cy="213.358" r="2.487" fill="#FFF"/><circle cx="75.947" cy="213.358" r="2.487" fill="#FFF"/><circle cx="109.268" cy="213.358" r="2.487" fill="#FFF"/><circle cx="125.751" cy="213.358" r="2.487" fill="#FFF"/><circle cx="183.563" cy="213.358" r="2.487" fill="#FFF"/><circle cx="217.25" cy="213.358" r="2.487" fill="#FFF"/><circle cx="250.248" cy="213.358" r="2.487" fill="#FFF"/><circle cx="266.248" cy="213.358" r="2.487" fill="#FFF"/><circle cx="300.504" cy="213.358" r="2.487" fill="#FFF"/><circle cx="325.247" cy="213.358" r="2.487" fill="#FFF"/><circle cx="358.25" cy="213.358" r="2.487" fill="#FFF"/><circle cx="374.754" cy="213.358" r="2.487" fill="#FFF"/><circle cx="391.259" cy="213.358" r="2.487" fill="#FFF"/></svg>