<?xml version="1.0" encoding="UTF-8" standalone="no"?>
<!-- Generator: Adobe Illustrator 17.0.0, SVG Export Plug-In . SVG Version: 6.00 Build 0)  -->

<svg
   version="1.1"
   id="Capa_1"
   x="0px"
   y="0px"
   width="694.488px"
   height="255.118px"
   viewBox="0 0 694.488 255.118"
   enable-background="new 0 0 694.488 255.118"
   xml:space="preserve"
   sodipodi:docname="misterlogo.svg"
   inkscape:version="1.2.1 (9c6d41e410, 2022-07-14)"
   xmlns:inkscape="http://www.inkscape.org/namespaces/inkscape"
   xmlns:sodipodi="http://sodipodi.sourceforge.net/DTD/sodipodi-0.dtd"
   xmlns="http://www.w3.org/2000/svg"
   xmlns:svg="http://www.w3.org/2000/svg"><defs
   id="defs498" /><sodipodi:namedview
   id="namedview496"
   pagecolor="#ffffff"
   bordercolor="#000000"
   borderopacity="0.25"
   inkscape:showpageshadow="2"
   inkscape:pageopacity="0.0"
   inkscape:pagecheckerboard="true"
   inkscape:deskcolor="#d1d1d1"
   showgrid="false"
   inkscape:zoom="1.802767"
   inkscape:cx="280.957"
   inkscape:cy="127.58166"
   inkscape:window-width="2560"
   inkscape:window-height="1307"
   inkscape:window-x="0"
   inkscape:window-y="32"
   inkscape:window-maximized="1"
   inkscape:current-layer="layer1" />
<g
   inkscape:groupmode="layer"
   id="layer1"
   inkscape:label="bg"
   style="fill:#ffffff"><g
     id="g678"><rect
       style="fill:#ffffff"
       id="rect553"
       width="602.82404"
       height="117.43013"
       x="21.420727"
       y="121.35927" /><rect
       style="fill:#ffffff"
       id="rect607"
       width="486.89532"
       height="91.995125"
       x="36.689137"
       y="51.05328" /><rect
       style="fill:#ffffff"
       id="rect664"
       width="370.95651"
       height="45.290249"
       x="149.54889"
       y="24.592661"
       ry="0.034838211" /><rect
       style="fill:#ffffff"
       id="rect666"
       width="76.795471"
       height="31.076937"
       x="44.84277"
       y="27.5296"
       ry="0.034838211" /><rect
       style="fill:#ffffff"
       id="rect668"
       width="177.62491"
       height="48.588909"
       x="498.70685"
       y="68.896812"
       ry="0.034838211" /><rect
       style="fill:#ffffff"
       id="rect670"
       width="136.87881"
       height="47.106949"
       x="501.69934"
       y="95.833923"
       ry="0.034838211" /></g></g><g
   id="g493">
	<path
   d="M320.733,248.11c-98.662,0-197.323-0.015-295.985,0.051c-4.441,0.003-8.328-1.582-11.542-4.043   c-6.115-4.683-9.824-10.835-9.532-19.05c0.293-8.239,0.172-16.499,0.027-24.746c-0.097-5.523,2.206-9.993,5.613-13.99   c3.833-4.497,5.617-9.157,3.32-15.113c-2.933-7.605-3.232-15.5-1.463-23.492c2.393-10.813,4.726-21.639,6.985-32.481   c1.942-9.319,3.682-18.68,5.626-27.998c1.595-7.643,3.406-15.24,5.036-22.876c2.024-9.48,3.906-18.991,5.95-28.467   c1.772-8.215,5.353-15.421,13.091-19.498c2.933-1.545,6.475-2.617,9.765-2.686c13.826-0.292,27.663-0.185,41.495-0.095   c6.158,0.04,11.845,2.099,17.252,4.879c7.656,3.935,13.21,10.122,18.12,17.037c2.222,3.129,5.47,2.919,7.451-0.431   c2.096-3.545,3.688-7.391,5.83-10.904c3.401-5.577,8.737-8.645,14.838-10.507c0.615-0.188,1.321-0.099,1.985-0.099   c14.583-0.004,29.167-0.135,43.746,0.1c3.168,0.051,6.335,1.342,9.464,2.203c3.454,0.95,6.89,2.57,10.49,1.134   c2.457-0.979,4.711-2.477,7.033-3.783c9.14-5.143,19.044-7.054,29.347-6.067c9.808,0.94,18.891,4.235,26.343,11.002   c3.486,3.165,6.868,2.845,10.884,0.993c7.396-3.409,15.117-6.037,23.25-7.038c4.733-0.582,9.517-0.869,14.287-1.016   c9.742-0.3,19.437,0.093,28.981,2.418c4.027,0.981,8.124,1.683,12.199,2.461c3.554,0.679,6.786-0.75,10.105-1.627   c1.326-0.35,2.689-0.631,4.052-0.756c1.405-0.129,2.831-0.018,4.247-0.03c18.638-0.164,37.276-0.444,55.914-0.462   c14.383-0.014,28.78-0.002,43.145,0.604c6.185,0.261,12.033,2.824,17.229,6.385c7.147,4.9,12.76,11.124,15.946,19.3   c1.134,2.911,2.105,5.888,3.081,8.858c0.755,2.295,2.789,3.728,5.312,3.832c11.34,0.469,22.482,1.956,32.815,7.052   c3.558,1.755,6.767,1.8,10.082-0.616c3.299-2.405,7.072-3.492,11.224-3.475c15.666,0.063,31.332,0.073,46.997-0.019   c2.763-0.016,5.584-0.358,8.271-0.998c7.251-1.727,14.64-2.231,21.845-0.813c9.031,1.777,16.031,6.619,18.924,16.054   c1.463,4.774,1.233,9.405,0.081,14.219c-2.065,8.622-3.607,17.369-5.695,25.984c-1.625,6.704-3.116,13.529-8.871,18.369   c-5.341,4.492-11.423,5.863-18.142,5.029c-2.011-0.249-3.96-1.048-5.971-1.248c-2.976-0.295-4.745,1.222-5.428,4.1   c-1.107,4.668-2.353,9.305-3.4,13.987c-1.277,5.711-2.409,11.454-3.602,17.184c-1.161,5.578-2.389,11.143-3.453,16.74   c-0.659,3.465-0.981,6.854,0.299,10.425c1.275,3.557,2.146,7.4,2.362,11.166c0.377,6.541,0.127,13.12,0.103,19.682   c-0.004,0.977-0.297,1.953-0.306,2.931c-0.057,6.294-3.26,11.054-7.866,14.761c-2.792,2.247-8.555,5.48-12.201,5.48   S419.728,248.11,320.733,248.11z M179.025,76.301c0.229,0.012,0.457,0.025,0.686,0.037c-0.104,0.978-0.125,1.973-0.326,2.931   c-0.85,4.058-1.795,8.096-2.628,12.158c-1.39,6.784-2.694,13.586-4.086,20.369c-0.752,3.663-1.65,7.297-2.413,10.958   c-1.396,6.692-2.695,13.405-4.12,20.091c-1.224,5.744-2.727,11.384-1.956,17.415c1.112,8.692,5.864,14.277,13.795,17.387   c6.641,2.604,13.638,2.034,20.54,1.861c1.688-0.042,2.93-1.278,3.302-3.394c0.888-5.046,2.137-10.029,3.209-15.043   c0.765-3.579,1.475-7.17,2.221-10.753c0.98-4.704,1.961-9.407,2.962-14.107c0.829-3.892,1.72-7.77,2.526-11.666   c1.268-6.131,2.429-12.285,3.744-18.406c1.349-6.279,2.903-12.514,4.235-18.796c1.622-7.647,2.887-15.375,4.712-22.971   c1.834-7.633,1.001-14.658-3.765-20.934c-4.175-5.498-9.832-8.698-16.804-8.792c-12.164-0.164-24.331-0.014-36.497-0.08   c-1.835-0.01-2.956,0.64-3.675,2.267c-1.115,2.522-2.356,4.99-3.429,7.529c-4.707,11.134-9.35,22.294-14.061,33.427   c-3.442,8.135-6.948,16.243-10.434,24.359c-2.066,4.812-4.157,9.613-6.222,14.425c-2.273,5.296-4.517,10.604-6.813,15.89   c-0.251,0.577-0.764,1.041-1.156,1.557c-0.276-0.626-0.769-1.243-0.794-1.88c-0.225-5.632-0.33-11.268-0.544-16.9   c-0.295-7.774-0.684-15.544-0.98-23.318c-0.365-9.604-0.555-19.217-1.058-28.814c-0.289-5.514-0.676-11.071-3.042-16.229   c-3.005-6.552-10.928-12.098-18.29-12.223c-12.162-0.206-24.331-0.056-36.497-0.056c-4.217,0-4.759,0.384-5.614,4.444   c-0.938,4.453-1.733,8.936-2.682,13.386c-0.881,4.132-1.922,8.23-2.823,12.359c-1.298,5.953-2.504,11.927-3.802,17.881   c-1.369,6.278-2.846,12.533-4.188,18.817c-1.139,5.332-2.11,10.699-3.235,16.034c-1.04,4.931-2.213,9.833-3.275,14.76   c-1.029,4.771-1.953,9.566-2.993,14.335c-1.224,5.612-2.472,11.13-0.579,16.93c2.134,6.541,6.286,11.195,12.367,14.003   c5.284,2.44,11.082,2.202,16.746,1.939c1.013-0.047,2.526-1.429,2.831-2.479c1.198-4.126,2.036-8.36,2.952-12.565   c1.246-5.722,2.524-11.438,3.639-17.186c1.598-8.236,3.016-16.507,4.597-24.747c1.425-7.431,2.98-14.836,4.45-22.258   c1.519-7.67,2.993-15.35,4.534-23.015c0.089-0.444,0.606-0.801,1.303-1.673c0.271,1.951,0.54,3.295,0.628,4.651   c0.215,3.297,0.315,6.601,0.517,9.899c0.483,7.903,1.016,15.802,1.493,23.705c0.363,6.016,0.628,12.038,1.016,18.052   c0.451,6.987,1.058,13.965,1.469,20.954c0.422,7.178,0.734,14.364,1.003,21.55c0.133,3.559,1.692,5.228,5.259,5.231   c10.083,0.008,20.17-0.167,30.246,0.094c3.57,0.092,5.258-1.564,6.524-4.389c1.884-4.203,3.755-8.413,5.689-12.593   c3.913-8.455,7.929-16.863,11.785-25.344c4.628-10.179,9.076-20.44,13.706-30.618C169.564,96.573,174.322,86.45,179.025,76.301z    M341.868,31.669c-10.319,0.009-20.157,1.894-29.615,5.941c-8.092,3.462-14.861,8.574-20.31,15.506   c-4.229,5.381-6.495,11.475-7.863,18.142c-1.237,6.028-1.029,11.958-0.303,17.937c0.942,7.765,4.72,14.148,10.035,19.704   c5.359,5.601,12.105,9.156,18.861,12.698c4.036,2.116,8.121,4.166,11.998,6.549c2.913,1.791,5.383,4.394,5.998,7.828   c1.291,7.205-3.449,12.791-10.843,13.104c-3.51,0.148-7.032,0.024-10.548,0.028c-5.768,0.006-11.115-1.912-16.249-4.146   c-4.684-2.038-8.974-4.966-13.56-7.254c-0.943-0.471-2.97-0.301-3.541,0.378c-0.843,1.003-0.85,2.721-1.178,4.143   c-1.115,4.832-2.23,9.664-3.318,14.503c-0.909,4.042-1.839,8.08-2.639,12.144c-0.304,1.542,0.026,2.867,1.893,3.47   c6.789,2.194,13.434,4.948,20.344,6.621c6.642,1.608,13.517,2.584,20.341,3.003c5.64,0.346,11.357-0.506,17.038-0.863   c6.61-0.416,12.913-2.091,19.083-4.471c10.492-4.046,18.799-10.642,24.407-20.452c2.559-4.477,4.336-9.317,4.779-14.44   c0.38-4.398,0.365-8.878,0.003-13.279c-0.414-5.039-1.771-9.931-4.249-14.408c-3.797-6.858-9.482-11.906-15.988-16.036   c-6.958-4.417-14.17-8.438-21.058-12.958c-4.771-3.131-6.451-6.71-5.701-11.964c0.623-4.368,3.805-6.16,7.281-7.434   c6.021-2.207,12.229-0.913,18.329-0.23c3.295,0.369,6.48,1.697,9.774,2.094c4.852,0.585,9.287-1.002,13.022-4.058   c6.952-5.688,8.241-13.736,8.564-22.038c0.029-0.742-1.128-2.001-1.954-2.231c-7.031-1.965-14.033-4.206-21.203-5.455   C356.384,32.505,349.086,32.318,341.868,31.669z M242.013,227.109c71.161,0,142.322,0,213.483,0c3.846,0,3.941-0.084,4.258-3.956   c0.041-0.497,0.008-0.999,0.008-1.499c0-5.916,0-11.832,0-17.749c0-4.297,0-4.298-4.294-4.298c-142.239,0-284.477,0-426.716,0   c-0.583,0-1.174,0.059-1.749-0.011c-1.657-0.202-2.194,0.724-2.259,2.156c-0.172,3.805-0.462,7.61-0.468,11.416   c-0.006,3.471,0.362,6.942,0.445,10.416c0.085,3.522,0.02,3.524,3.559,3.524C99.525,227.109,170.769,227.109,242.013,227.109z    M447.113,34.599c-16.411,0-32.823,0.013-49.234-0.019c-1.806-0.004-2.8,0.375-3.213,2.471c-1.664,8.451-3.669,16.835-5.353,25.283   c-1.031,5.175,0.041,6.267,5.368,6.267c9.997,0,19.994,0.055,29.99-0.041c2.345-0.022,3.21,1.068,3.047,3.108   c-0.121,1.524-0.646,3.014-0.951,4.527c-1.558,7.737-3.046,15.49-4.669,23.213c-1.705,8.109-3.596,16.179-5.296,24.289   c-2.036,9.715-4.208,19.414-5.799,29.205c-0.607,3.739-0.444,7.906,0.588,11.531c1.216,4.273,4.21,7.867,7.885,10.564   c1.932,1.418,4.08,3.201,6.288,3.457c6.465,0.75,13.007,0.861,19.522,1.131c2.793,0.116,4.138-1.204,4.469-4.055   c0.067-0.573,0.036-1.163,0.157-1.723c0.936-4.362,1.936-8.71,2.842-13.079c0.926-4.465,1.702-8.962,2.667-13.418   c0.857-3.955,1.959-7.857,2.818-11.812c1.14-5.248,2.138-10.526,3.216-15.787c0.751-3.663,1.543-7.318,2.304-10.98   c1.306-6.291,2.629-12.578,3.893-18.877c1.075-5.355,2.239-10.7,3.061-16.096c0.648-4.253,1.406-5.158,5.74-5.158   c11.246,0,22.493-0.038,33.739,0.039c1.771,0.012,2.985-0.589,3.374-2.193c0.556-2.294,1.125-4.659,1.14-6.997   c0.047-7.233-2.4-13.759-7.404-18.88c-3.526-3.608-7.918-6.078-13.456-6.024C478.271,34.699,462.691,34.599,447.113,34.599z    M513.276,141.138c1.964-0.351,3.861-0.812,5.785-1.012c7.024-0.729,14.129-0.956,21.067-2.158   c7.559-1.309,15.072-3.13,22.061-6.552c6.905-3.381,12.341-8.203,15.398-15.416c2.657-6.267,2.195-12.816,1.101-19.207   c-1.642-9.601-8.007-15.552-16.674-19.195c-4.758-2-9.747-2.968-14.922-3.693c-7.469-1.045-14.71-0.604-21.994,0.717   c-8.206,1.489-15.954,4.189-23.174,8.502c-8.323,4.972-14.668,11.748-19.676,19.955c-4.584,7.512-8.089,15.545-9.307,24.186   c-1.132,8.037-1.228,16.204,0.734,24.324c3.033,12.55,10.435,21.13,22.231,26.04c4.764,1.983,9.812,2.747,14.885,3.681   c8.241,1.517,16.306,0.603,24.343-0.503c5.836-0.803,11.565-2.586,17.239-4.276c3.027-0.902,6.626-1.434,8.037-4.917   c0.843-2.08,1.18-4.377,1.641-6.598c1.107-5.323,2.223-10.646,3.193-15.995c0.462-2.545-0.064-2.855-2.66-2.054   c-3.488,1.077-7.031,1.999-10.461,3.235c-7.532,2.713-15.283,4.015-23.234,3.31c-3.256-0.289-6.654-1.107-9.572-2.533   C515.604,149.169,513.034,146.056,513.276,141.138z M634.452,76.101c-1.138,0-2.018,0-2.897,0c-11.75,0-23.501,0.091-35.249-0.072   c-2.54-0.035-3.69,1.132-4.295,3.139c-0.586,1.944-0.859,3.985-1.239,5.989c-0.684,3.603-1.308,7.219-2.028,10.815   c-0.782,3.906-1.7,7.784-2.458,11.694c-1.008,5.199-1.868,10.426-2.888,15.622c-0.797,4.064-1.842,8.08-2.596,12.151   c-1.099,5.936-1.908,11.928-3.073,17.85c-1.445,7.342,0.621,13.583,5.506,19.012c4.688,5.211,10.737,7.279,17.599,7.303   c4.54,0.016,9.081,0.003,13.528,0.003c0.434-1.357,0.754-2.106,0.909-2.886c1.029-5.191,1.937-10.407,3.049-15.579   c1.59-7.394,3.187-14.792,5.03-22.125c1.757-6.99,3.043-14.18,7.908-20.001c3.61-4.32,8.168-7.215,13.524-8.288   c4.872-0.976,9.963-0.743,14.729,1.055c1.669,0.629,2.245-0.167,2.55-1.289c1.149-4.232,2.202-8.493,3.201-12.763   c1.444-6.169,2.711-12.382,4.247-18.528c0.957-3.831,0.294-4.941-3.674-5.102c-0.414-0.017-0.83-0.028-1.239-0.085   c-5.835-0.803-11.33,0.076-16.521,3c-4.471,2.518-7.193,6.664-10.28,10.489c-1.526,1.891-3.007,3.818-4.508,5.729   c-0.198-0.115-0.395-0.23-0.593-0.345C633.267,87.423,633.839,81.958,634.452,76.101z M243.863,179.606c1.25,0,2.499,0,3.749,0   c5.037,0,5.145,0.03,6.429-4.635c1.057-3.84,1.873-7.749,2.7-11.648c1.707-8.048,3.328-16.114,5.03-24.163   c0.942-4.457,2.023-8.885,2.958-13.344c1.185-5.649,2.377-11.299,3.393-16.979c0.888-4.967,2.207-9.932,1.129-15.052   c-1.78-8.454-5.73-13.59-14.098-16.197c-7.104-2.213-14.402-1.324-21.636-1.438c-0.571-0.009-1.501,0.529-1.665,1.016   c-0.519,1.536-0.772,3.165-1.092,4.765c-0.735,3.671-1.421,7.353-2.18,11.02c-0.741,3.581-1.566,7.145-2.321,10.723   c-1.075,5.094-2.108,10.198-3.182,15.292c-0.753,3.572-1.564,7.132-2.318,10.704c-1.078,5.101-2.156,10.203-3.181,15.314   c-1.058,5.274-2.474,10.427-1.423,16.004c1.51,8.009,5.973,13.299,13.182,16.678C234.007,179.855,238.931,179.638,243.863,179.606z    M259.284,27.546c-3.693,0.862-7.563,1.29-11.03,2.705c-3.641,1.485-6.956,3.709-9.592,6.936c-3.439,4.21-4.512,8.934-3.856,14.073   c0.602,4.719,2.715,8.799,6.511,11.853c3.228,2.597,6.705,4.592,11.031,4.538c4.178-0.052,8.497,0.568,12.5-0.29   c4.993-1.07,9.255-3.831,13.159-7.533c6.71-6.366,5.789-18.442,0.015-24.718C272.993,29.645,266.489,28.125,259.284,27.546z    M579.776,211.535c-2.788,0-5.313,0.052-7.835-0.013c-3.42-0.088-6.839-0.263-10.257-0.408c-2.172-0.092-1.553,1.708-1.7,2.786   c-0.043,0.314,1.178,1.128,1.84,1.153c3.244,0.122,6.494,0.031,9.742,0.062c5.242,0.049,4.659-0.826,4.704,4.852   c0.021,2.679-1.201,3.522-3.644,3.556c-5.854,0.08-11.712-0.105-17.568-0.165c-2.41-0.025-3.277-0.842-3.286-3.25   c-0.014-3.914-0.004-7.829-0.004-11.743c0-5.255,0-5.255,5.331-5.255c7.31,0,14.619,0,22.239,0   c-0.634-1.752,1.444-4.412-2.029-4.464c-7.577-0.114-15.159-0.117-22.736-0.001c-3.907,0.06-6.805,3.304-6.806,7.206   c-0.002,4.831,0.157,9.668-0.047,14.49c-0.185,4.36,2.602,7.076,6.862,7.215c6.323,0.206,12.66,0.151,18.986,0.014   c3.576-0.077,5.873-2.168,6.149-5.7C579.987,218.406,579.776,214.907,579.776,211.535z M617.266,227.492   c0-7.745,0.112-15.314-0.071-22.876c-0.053-2.177-1.429-4.206-3.576-4.911c-2.138-0.702-4.482-0.983-6.747-1.052   c-4.91-0.15-9.829-0.126-14.741-0.022c-4.413,0.093-7.296,3.257-7.342,7.252c-0.074,6.413,0.004,12.827-0.038,19.241   c-0.01,1.514,0.122,2.561,2.092,2.53c1.85-0.029,1.961-1.033,1.939-2.427c-0.044-2.748-0.118-5.504,0.066-8.241   c0.044-0.658,1.041-1.783,1.615-1.793c7.078-0.124,14.159-0.124,21.238-0.043c1.296,0.015,2.061,0.574,1.715,2.367   c-0.413,2.134-0.141,4.404-0.142,6.614C613.271,227.702,613.31,227.73,617.266,227.492z M516.437,215.106   c7.326,0,14.48,0.008,21.634-0.019c0.453-0.002,0.953-0.191,1.351-0.427c2.746-1.628,4.639-6.551,3.766-9.706   c-1.086-3.926-4.034-6.328-7.897-6.34c-7.497-0.023-14.995,0.052-22.491-0.047c-1.979-0.026-2.6,0.583-2.576,2.57   c0.098,7.913,0.05,15.827,0.031,23.741c-0.004,1.488-0.14,2.817,2.088,2.778c2.102-0.037,1.927-1.315,1.925-2.684   c-0.01-6.414,0.079-12.83-0.05-19.242c-0.043-2.148,0.709-2.698,2.74-2.662c6.162,0.109,12.328,0.035,18.492,0.041   c3.031,0.003,3.299,0.278,3.315,3.273c0.023,4.321-0.234,4.704-3.435,4.719c-5.248,0.024-10.496,0.006-15.744,0.007   C516.083,211.109,516.083,211.111,516.437,215.106z M478.263,215.035c9.336,0,18.375,0,27.391,0   c0.232-3.924,0.232-3.925-3.277-3.926c-3.833-0.001-7.667,0-11.5,0c-4.139,0-8.278,0-12.611,0c0-2.094-0.247-3.96,0.104-5.706   c0.176-0.877,1.329-1.956,2.238-2.196c1.402-0.37,2.974-0.099,4.474-0.099c6.814,0,13.628,0,21.059,0   c-1.175-1.658,1.269-4.427-2.338-4.472c-7.415-0.092-14.843-0.258-22.245,0.062c-4.29,0.185-7.511,2.643-7.344,7.702   c0.208,6.326,0.084,12.665,0.027,18.998c-0.014,1.566,0.435,2.272,2.124,2.249c1.63-0.022,1.937-0.815,1.915-2.198   C478.228,222.123,478.263,218.797,478.263,215.035z"
   id="path411" />
	<path
   d="M540.825,104.663c-0.15,4.357-2.37,7.34-5.556,9.353c-3.607,2.279-7.568,3.983-12.001,4.114   c-0.714,0.021-1.491,0.204-2.115,0.541c-1.897,1.024-3.858,0.504-4.971-0.777c-0.762-0.876-0.788-3.004-0.303-4.244   c2.098-5.369,4.874-10.269,10.017-13.509c3.24-2.041,6.63-2.475,10.232-1.99C538.37,98.452,541.326,102.258,540.825,104.663z"
   id="path413" />
	<path
   d="M601.363,203.108c3.077,0,6.159,0.097,9.23-0.037c1.756-0.077,2.393,0.884,2.633,2.271   c0.252,1.455,0.418,2.952,0.353,4.418c-0.021,0.468-0.89,1.272-1.39,1.288c-7.368,0.224-14.739,0.351-22.11,0.451   c-0.391,0.005-1.122-0.427-1.129-0.671c-0.06-2.052-0.227-4.156,0.176-6.135c0.14-0.687,1.769-1.452,2.76-1.513   C595.035,202.986,598.203,203.108,601.363,203.108z"
   id="path415" />
	<g
   id="g491">
		<circle
   cx="42.735"
   cy="213.358"
   r="6.487"
   id="circle417" />
		<circle
   cx="59.745"
   cy="213.358"
   r="6.487"
   id="circle419" />
		<circle
   cx="75.947"
   cy="213.358"
   r="6.487"
   id="circle421" />
		<circle
   cx="92.717"
   cy="213.358"
   r="6.487"
   id="circle423" />
		<circle
   cx="109.268"
   cy="213.358"
   r="6.487"
   id="circle425" />
		<circle
   cx="125.751"
   cy="213.358"
   r="6.487"
   id="circle427" />
		<circle
   cx="142.247"
   cy="213.358"
   r="6.487"
   id="circle429" />
		<circle
   cx="158.978"
   cy="213.358"
   r="6.487"
   id="circle431" />
		<circle
   cx="183.563"
   cy="213.358"
   r="6.487"
   id="circle433" />
		<circle
   cx="200.74"
   cy="213.358"
   r="6.487"
   id="circle435" />
		<circle
   cx="217.25"
   cy="213.358"
   r="6.487"
   id="circle437" />
		<circle
   cx="233.75"
   cy="213.358"
   r="6.487"
   id="circle439" />
		<circle
   cx="250.313"
   cy="213.358"
   r="6.487"
   id="circle441" />
		<circle
   cx="266.248"
   cy="213.358"
   r="6.487"
   id="circle443" />
		<circle
   cx="283.298"
   cy="213.358"
   r="6.487"
   id="circle445" />
		<circle
   cx="300.504"
   cy="213.358"
   r="6.487"
   id="circle447" />
		<circle
   cx="325.247"
   cy="213.358"
   r="6.487"
   id="circle449" />
		<circle
   cx="341.571"
   cy="213.358"
   r="6.487"
   id="circle451" />
		<circle
   cx="358.25"
   cy="213.358"
   r="6.487"
   id="circle453" />
		<circle
   cx="374.754"
   cy="213.358"
   r="6.487"
   id="circle455" />
		<circle
   cx="391.259"
   cy="213.358"
   r="6.487"
   id="circle457" />
		<circle
   cx="407.76"
   cy="213.358"
   r="6.487"
   id="circle459" />
		<circle
   cx="424.751"
   cy="213.358"
   r="6.487"
   id="circle461" />
		<circle
   cx="441.512"
   cy="213.358"
   r="6.487"
   id="circle463" />
		<circle
   fill="#FFFFFF"
   cx="42.735"
   cy="213.358"
   r="2.487"
   id="circle465" />
		<circle
   fill="#FFFFFF"
   cx="75.947"
   cy="213.358"
   r="2.487"
   id="circle467" />
		<circle
   fill="#FFFFFF"
   cx="109.268"
   cy="213.358"
   r="2.487"
   id="circle469" />
		<circle
   fill="#FFFFFF"
   cx="125.751"
   cy="213.358"
   r="2.487"
   id="circle471" />
		<circle
   fill="#FFFFFF"
   cx="183.563"
   cy="213.358"
   r="2.487"
   id="circle473" />
		<circle
   fill="#FFFFFF"
   cx="217.25"
   cy="213.358"
   r="2.487"
   id="circle475" />
		<circle
   fill="#FFFFFF"
   cx="250.248"
   cy="213.358"
   r="2.487"
   id="circle477" />
		<circle
   fill="#FFFFFF"
   cx="266.248"
   cy="213.358"
   r="2.487"
   id="circle479" />
		<circle
   fill="#FFFFFF"
   cx="300.504"
   cy="213.358"
   r="2.487"
   id="circle481" />
		<circle
   fill="#FFFFFF"
   cx="325.247"
   cy="213.358"
   r="2.487"
   id="circle483" />
		<circle
   fill="#FFFFFF"
   cx="358.25"
   cy="213.358"
   r="2.487"
   id="circle485" />
		<circle
   fill="#FFFFFF"
   cx="374.754"
   cy="213.358"
   r="2.487"
   id="circle487" />
		<circle
   fill="#FFFFFF"
   cx="391.259"
   cy="213.358"
   r="2.487"
   id="circle489" />
	</g>
</g>
</svg>
