<?xml version="1.0" encoding="UTF-8" standalone="no"?>
<!-- Created with Inkscape (http://www.inkscape.org/) -->

<svg
   version="1.1"
   id="svg1"
   width="500"
   height="500"
   viewBox="0 0 500 500"
   sodipodi:docname="logo.svg"
   xml:space="preserve"
   inkscape:version="1.3 (0e150ed6c4, 2023-07-21)"
   inkscape:export-filename="logo-app.svg"
   inkscape:export-xdpi="96"
   inkscape:export-ydpi="96"
   xmlns:inkscape="http://www.inkscape.org/namespaces/inkscape"
   xmlns:sodipodi="http://sodipodi.sourceforge.net/DTD/sodipodi-0.dtd"
   xmlns="http://www.w3.org/2000/svg"
   xmlns:svg="http://www.w3.org/2000/svg"><defs
     id="defs1"><linearGradient
       id="swatch6"
       inkscape:swatch="solid"><stop
         style="stop-color:#000000;stop-opacity:1;"
         offset="0"
         id="stop6" /></linearGradient><linearGradient
       id="swatch3"
       inkscape:swatch="solid"><stop
         style="stop-color:#000000;stop-opacity:1;"
         offset="0"
         id="stop3" /></linearGradient></defs><sodipodi:namedview
     id="namedview1"
     pagecolor="#ffffff"
     bordercolor="#000000"
     borderopacity="0.25"
     inkscape:showpageshadow="2"
     inkscape:pageopacity="0.0"
     inkscape:pagecheckerboard="0"
     inkscape:deskcolor="#d1d1d1"
     inkscape:zoom="2.9889277"
     inkscape:cx="218.473"
     inkscape:cy="248.58413"
     inkscape:window-width="3840"
     inkscape:window-height="2075"
     inkscape:window-x="1920"
     inkscape:window-y="0"
     inkscape:window-maximized="1"
     inkscape:current-layer="g2" /><g
     inkscape:groupmode="layer"
     inkscape:label="Image"
     id="g1"><g
       id="g2"
       transform="matrix(1.3333333,0,0,1.3333333,-0.250244,6.25e-6)"><path
         style="fill:#282a36;fill-opacity:1;stroke:none;stroke-width:0.445979;stroke-dasharray:none"
         d="m 249.78584,58.0809 c -9.76079,0.01262 -19.59177,0.444976 -29.08679,2.904936 -16.93233,3.775649 -33.3173,12.290628 -44.04707,26.222096 -10.44055,13.280898 -14.21434,30.404758 -15.10869,46.950448 -2.03946,32.15048 6.53944,65.03205 24.56939,91.78032 1.82955,3.14045 4.95287,5.64249 5.82358,9.25683 -0.19192,2.44611 -2.80695,3.84411 -5.07296,3.29689 -17.9239,-1.02232 -34.68331,-11.46652 -44.30002,-26.50364 -6.52617,-9.41174 -9.60877,-20.577 -12.58486,-31.45594 -4.55093,-15.15051 -13.58288,-29.83257 -27.73069,-37.65187 -11.142003,-6.28452 -25.608472,-7.06741 -36.791954,-0.45688 -7.612232,4.49958 -13.855943,11.74048 -16.465067,20.25183 -1.312609,5.17695 -1.580645,10.93009 1.081466,15.75084 1.596807,3.16776 4.168484,5.94028 7.321291,7.57157 1.807331,0.40664 2.459983,-2.0296 1.23176,-3.08692 -4.055251,-4.8671 -4.291179,-12.32685 -0.603789,-17.47269 4.250167,-6.34639 11.619291,-10.60394 19.088679,-11.41844 5.729549,-0.66087 11.725349,0.59854 16.323265,4.30233 8.245909,6.36078 10.963789,16.97127 13.386309,26.57981 4.14633,16.32343 6.17045,33.24676 12.17156,49.05808 3.06018,7.43433 7.33885,15.38256 14.99411,18.84876 5.45415,-0.11188 10.99176,-0.64889 16.47363,-0.057 8.03487,0.74075 15.9917,1.96258 23.48181,4.98344 2.91033,1.4177 1.99213,6.25426 -1.17295,6.55414 -4.56975,-0.66055 -8.91392,-2.51987 -13.52387,-3.10195 -19.26608,-3.42828 -39.91167,-0.38 -56.64787,10.03247 -7.886492,5.19767 -16.783475,9.88787 -26.496233,9.6685 -10.750758,-0.0288 -21.093312,-5.47979 -28.158007,-13.48411 -6.739639,-7.57012 -12.009267,-17.39752 -11.517723,-27.7867 0.385145,-7.34423 6.038233,-13.91649 12.958634,-16.03771 2.533431,-0.51858 5.279113,0.11102 7.689185,-0.84034 1.434799,-2.15708 -1.667681,-3.35279 -3.152911,-4.32325 -6.466996,-3.10327 -14.861797,-2.91525 -20.412518,2.00247 -8.019407,6.87602 -10.712604,17.94516 -11.005522,28.11324 -0.528099,15.99935 6.058536,32.10351 17.896662,42.93004 12.309513,12.14824 29.784834,17.77934 46.769039,18.6566 12.290521,0.67441 24.637884,-0.22803 36.691704,-2.72757 9.89128,-1.83569 19.55078,-5.03978 29.05998,-8.04386 1.75142,-0.75967 3.85181,-0.2769 4.62268,1.60613 1.2877,2.23322 -0.64737,4.53494 -2.819,5.10021 -7.23123,3.24628 -15.10895,4.63254 -22.48831,7.43327 -6.16414,3.12409 -11.48325,7.67082 -16.90975,11.89651 -13.97956,11.83499 -27.015447,25.98061 -33.14245,43.56968 -2.791192,7.91453 -4.302255,16.6236 -2.468748,24.92011 2.194797,8.68439 10.628152,15.10933 19.545444,15.13071 5.257674,0.30262 10.620784,-0.9391 15.090204,-3.73709 1.50248,-1.36487 -0.4307,-3.3223 -2.08125,-2.74647 -5.40096,0.32804 -11.60442,0.29947 -15.667202,-3.87239 -4.769081,-4.14624 -5.167445,-10.93566 -5.025056,-16.80812 0.03416,-10.30642 7.02832,-19.36121 15.818708,-24.12777 10.28498,-5.84688 21.96023,-7.40963 33.42785,-9.55079 17.84713,-4.10237 34.51403,-13.22244 47.78343,-25.81706 5.54999,-5.30182 10.31151,-11.6119 12.72209,-18.97237 1.19854,-3.52764 7.06424,-2.16186 6.77435,1.51732 -1.58906,7.42281 -6.46762,13.28781 -10.88327,19.24159 -9.69349,15.08245 -17.23752,31.65568 -21.62352,49.06436 -3.7401,15.56552 -4.82677,32.28325 -0.0816,47.75652 2.90732,9.47795 9.5233,18.37281 19.20959,21.5939 6.88903,2.25178 15.15217,1.96415 21.19736,-2.35687 5.4657,-4.19883 8.30185,-11.72173 6.78284,-18.45287 -0.6202,-1.98937 -3.73738,-1.34874 -3.39338,0.73709 -2.07019,5.73607 -8.13381,10.73632 -14.4838,9.6835 -5.97713,-1.2577 -10.08652,-6.6207 -12.5378,-11.89021 -2.95911,-6.83473 -3.55366,-14.76948 -1.52517,-21.9358 2.49989,-7.49907 8.97506,-12.56949 14.23869,-18.01376 13.4135,-12.78958 27.37932,-25.95117 35.08528,-43.15731 3.83885,-8.38955 6.05884,-17.54696 6.07712,-26.78832 0.13181,-2.64184 3.43534,-4.30049 5.54782,-2.56284 2.17954,1.40194 1.40506,4.53471 1.79282,6.73078 0.86587,17.08321 9.7743,32.69004 20.76374,45.35599 9.28398,10.38905 19.74327,19.64382 29.24666,29.8166 4.31302,4.68993 6.67957,11.08025 6.25089,17.46076 0.26564,6.98957 -2.31309,13.95638 -6.45416,19.2455 -3.36539,4.38686 -9.49158,7.64796 -14.90331,4.99172 -4.29961,-1.94568 -7.57203,-5.89616 -8.7994,-10.43173 -0.98326,-1.68047 -3.23377,-0.39251 -3.07908,1.28404 -1.98502,9.96284 5.85515,20.78709 16.12854,21.44438 8.87322,1.17721 18.14793,-2.38316 23.85366,-9.30648 7.9316,-9.14308 10.04586,-21.73516 10.5206,-33.45682 0.44016,-22.50914 -7.16984,-44.37532 -17.38774,-64.14755 -3.45371,-6.72907 -7.46626,-13.1673 -12.22415,-19.05209 -2.70695,-4.02153 -5.33951,-8.24897 -6.12351,-13.11154 0.17034,-3.06696 4.45785,-4.65929 6.30517,-2.0048 1.72615,3.70073 3.02067,7.6555 5.57591,10.92509 7.55435,10.26308 17.79738,18.28641 28.94529,24.3348 10.79139,6.0913 22.68765,10.13766 34.96103,11.85726 11.00629,1.85631 22.24678,4.89397 30.97971,12.24648 6.34709,5.38764 10.37472,13.69317 9.70679,22.09783 0.11483,5.35799 -0.89008,11.31782 -5.28684,14.89415 -4.49439,4.19114 -11.09258,3.75493 -16.76632,3.43328 -2.31049,0.20037 -1.57638,3.153 0.30965,3.47556 4.29799,2.26285 9.16335,3.66091 14.05537,3.08284 9.09433,-0.004 17.82111,-6.63101 19.69298,-15.63161 2.37406,-11.16925 -1.24412,-22.62618 -6.10259,-32.6269 -8.57973,-17.02421 -22.6795,-30.61033 -37.91209,-41.7459 -4.28749,-3.03694 -8.6245,-6.34436 -13.93423,-7.28601 -6.29549,-1.87121 -12.69905,-3.61267 -18.69856,-6.29929 -2.67978,-1.48281 -1.85939,-6.09069 1.22392,-6.40646 4.43409,0.43789 8.45502,2.7259 12.76072,3.78207 16.5471,4.94904 33.81372,8.17719 51.14676,7.42633 14.9292,0.0608 29.99708,-3.94916 42.56035,-12.09906 13.74761,-8.83569 23.25961,-23.81638 25.56111,-39.9737 0.44762,-5.87311 0.69473,-11.85547 -0.18425,-17.69617 -1.65357,-8.65209 -5.61984,-17.77464 -13.69314,-22.18736 -6.4948,-3.4195 -15.00628,-2.09076 -20.52432,2.59748 -1.59786,1.76216 0.95045,3.26699 2.62101,2.6631 3.59323,-0.15364 7.46469,-0.043 10.3677,2.40051 4.96897,3.59363 8.581,9.59593 7.86168,15.88218 0.0102,9.39926 -4.86853,18.04481 -10.78982,25.04099 -8.10528,9.46179 -20.74858,15.52751 -33.33266,13.76107 -8.36333,-0.85973 -15.65207,-5.32174 -22.58535,-9.73227 -11.87222,-7.22513 -25.79384,-11.09198 -39.70247,-10.8587 -9.50338,-0.2104 -19.0282,1.10624 -28.04361,4.1514 -3.14643,1.41598 -6.23522,-3.08172 -3.92987,-5.55566 3.42566,-2.44205 7.82207,-2.95409 11.81345,-3.99929 9.44315,-1.93066 19.12325,-2.64215 28.76077,-1.63544 6.6995,-2.78915 10.99468,-9.34203 13.96324,-15.72107 6.50046,-14.75407 8.55347,-30.96947 12.22261,-46.49577 2.24254,-8.98516 3.86787,-18.5038 9.06061,-26.36647 4.43396,-6.51793 12.05017,-10.98061 20.05977,-10.54131 8.42442,0.36961 16.90817,4.83666 21.34779,12.11337 3.13065,5.13257 3.18174,12.23178 -0.84101,16.91334 -1.48903,1.4388 0.53571,3.90656 2.18711,2.59029 5.6544,-3.57265 8.94347,-10.36064 8.31325,-17.01266 -0.26465,-8.32521 -5.30605,-15.70918 -11.06836,-21.36242 -9.59986,-9.25514 -24.54937,-11.5898 -36.87623,-6.96381 -13.65155,4.86013 -23.87197,16.49852 -29.72293,29.45866 -5.41305,10.68591 -6.44854,22.96947 -11.96864,33.62073 -6.6549,14.48109 -18.63017,26.74359 -33.82537,32.11799 -5.66852,1.88764 -11.66211,3.47637 -17.67722,3.13527 -2.57793,-0.48663 -3.5747,-3.93301 -1.71139,-5.76934 5.87568,-7.88817 11.17836,-16.23079 15.29175,-25.18444 9.59811,-20.36298 14.67932,-42.88318 14.24826,-65.41818 -0.0345,-18.02394 -2.75842,-36.95071 -13.23845,-52.089913 -10.4684,-15.517293 -27.91892,-24.936768 -45.8539,-29.006348 -9.55331,-2.309786 -19.33566,-3.083995 -29.14541,-2.882909 z m 11.9314,102.33211 c 2.9628,0.14803 3.91652,4.03266 2.29624,6.13135 -0.78797,1.73475 1.17075,2.73095 2.6406,2.39753 19.46396,0.3554 39.08439,0.005 58.45141,0.2751 0.65843,5.15472 0.0353,10.3931 -1.23503,15.42411 -2.59385,8.00627 -7.93508,15.14412 -15.25095,19.4043 -7.46519,4.58697 -16.43333,6.35545 -25.05451,5.05609 -1.71434,-0.53094 -3.00115,1.68918 -1.62599,2.88598 3.74262,4.46756 5.90378,10.47054 5.89284,16.17428 -0.74732,-3.55604 -1.05651,-7.29771 -2.78044,-10.59117 -1.45722,-2.88858 -3.3039,-5.81882 -5.90722,-7.73493 -2.31387,0.0352 -1.68752,3.02093 -3.02418,4.27882 -1.5964,1.38862 -1.20036,3.36304 0.21237,4.69832 2.78631,4.6556 4.13195,10.24373 3.76258,15.5901 -0.32572,-0.16464 -0.19261,-1.95942 -0.27379,-2.72425 -0.39641,-4.99965 -1.85872,-10.092 -4.80113,-14.17286 -1.68461,-1.34537 -3.44937,0.93015 -5.22677,1.23514 -5.29334,1.36232 -9.21467,5.8157 -14.83535,6.21238 -6.25019,1.00248 -12.94768,0.0148 -18.12172,-3.81963 -2.84812,-2.03173 -6.46573,-2.26311 -9.4233,-4.07278 -2.75636,-0.90918 -3.7462,2.59228 -4.73035,4.39709 -1.94839,4.06127 -2.3312,8.80151 -2.82423,13.07886 -0.44425,-2.9494 0.33853,-5.96472 0.9168,-8.88892 0.73829,-3.4458 2.63497,-6.47919 4.41076,-9.42923 0.3494,-1.92849 -1.67739,-3.46907 -1.68521,-5.44468 -0.8728,-2.04383 -3.30218,-0.77474 -4.18472,0.56393 -4.43653,4.238 -6.35725,10.33788 -6.95927,16.28798 -0.37929,1.48203 -0.31192,-0.93463 -0.17382,-1.31083 0.5501,-5.6375 2.89252,-11.09514 6.67687,-15.27986 0.94904,-1.95796 -1.72145,-2.59262 -3.10052,-1.85434 -12.40953,1.66408 -25.62045,-3.21254 -33.51105,-13.08606 -5.18204,-6.23076 -7.76771,-14.52118 -7.44611,-22.65849 -0.001,-1.3598 -0.002,-2.72331 0.12743,-4.0782 20.04969,-0.57775 40.12333,0.12367 60.16999,-0.53322 2.34151,-0.24411 1.4492,-2.89373 0.67109,-4.22981 -0.81422,-3.19043 3.86121,-5.63544 5.95558,-3.01699 1.66861,2.73015 3.09076,6.27472 6.59465,7.04619 4.1489,1.23123 8.67891,-1.53213 9.73711,-5.67655 0.62803,-1.42633 2.03374,-2.61845 3.65934,-2.53475 z"
         id="path1"
         transform="matrix(0.75000002,0,0,0.75000002,0.187683,-4.6875001e-6)" /><rect
         x="-37.5"
         width="450"
         fill="#ffffff"
         y="-37.5"
         height="450"
         fill-opacity="1"
         id="rect1"
         style="display:none;fill:#282a36;fill-opacity:1;stroke:none;stroke-width:0.99975;stroke-dasharray:none" /><rect
         x="-37.5"
         width="450"
         fill="#ffffff"
         y="-37.5"
         height="450"
         fill-opacity="1"
         id="rect2"
         style="display:none" /><rect
         x="-37.5"
         width="450"
         fill="#282a36"
         y="-37.5"
         height="450"
         fill-opacity="1"
         id="rect3"
         style="display:none" /><path
         fill="#9c5cf7"
         d="m 171.95703,144.55859 c -2.07031,0 -3.75,1.67578 -3.75,3.7461 v 11.23047 c 0,2.07031 1.67969,3.75 3.75,3.75 2.07031,0 3.75,-1.67969 3.75,-3.75 v -11.23047 c 0,-2.07032 -1.67969,-3.7461 -3.75,-3.7461"
         fill-opacity="1"
         fill-rule="nonzero"
         id="path3"
         style="display:inline" /><path
         fill="#9c5cf7"
         d="m 202.96094,144.55859 c -2.07032,0 -3.75,1.67578 -3.75,3.7461 v 11.23047 c 0,2.07031 1.67968,3.75 3.75,3.75 2.07031,0 3.75,-1.67969 3.75,-3.75 v -11.23047 c 0,-2.07032 -1.67969,-3.7461 -3.75,-3.7461"
         fill-opacity="1"
         fill-rule="nonzero"
         id="path4"
         style="display:inline" /><path
         fill="#9c5cf7"
         d="m 339.30859,221.63672 c -29.48828,21.70312 -78.44531,1.92578 -78.93359,1.71094 -1.89453,-0.79297 -4.10938,0.11718 -4.90234,2.03125 -0.78907,1.91406 0.11718,4.10937 2.03125,4.89843 0.7539,0.3125 7.47656,3.03907 17.30859,5.42969 4.53125,2.71094 35.02344,21.90625 39.375,49.30469 1.24219,7.8789 -0.47656,13.9414 -4.97266,17.51172 -4.39453,3.50781 -11.16406,4.3164 -16.89453,1.99218 -0.94922,-0.3789 -2.16406,-0.97265 -3.33203,-1.84375 3.85547,0.65625 8.19531,0.71485 11.72266,-1.14062 2.30078,-1.22266 5.22265,-3.76953 6.09375,-9.03516 1.15234,-6.96875 -0.10157,-13.0039 -3.71485,-17.92187 -5.16406,-7.07031 -14.78515,-11.53125 -29.39843,-13.65235 -16.60547,-2.41406 -32.95704,-12.29296 -41.98829,-22.25781 -0.0234,-0.0312 -0.043,-0.0586 -0.0547,-0.0781 -0.17578,-0.25782 -0.38282,-0.47657 -0.60938,-0.67188 -3.09375,-3.55859 -5.23828,-7.10937 -6.08984,-10.30078 -0.53906,-2.00391 -2.61719,-3.18359 -4.58985,-2.65625 -2.0039,0.53906 -3.19531,2.58594 -2.66015,4.58984 1.14844,4.29297 3.93359,8.96485 7.9375,13.53907 1.80469,2.68359 20.58984,31.35547 18.69922,59.99609 -0.83594,12.70313 -5.04688,21.71094 -12.16797,26.07422 -6.06641,3.72266 -12.67188,3.13672 -16.48047,1.50391 -5.09766,-2.1836 -7.69531,-8.1211 -7.26563,-12.60938 0.0664,-0.71484 0.21485,-1.48828 0.5,-2.25781 0.0664,0.38281 0.15625,0.76953 0.26172,1.15234 0.87891,3.09375 3.02735,5.61328 6.21094,7.29297 4.11328,2.14844 8.75391,1.09375 12.42578,-2.87109 5.75391,-6.21875 8.30078,-18.57813 2.94141,-27.0625 -2.01172,-3.19141 -5.70703,-6.67969 -10.36328,-11.08985 -12.32032,-11.64062 -29.1875,-27.58203 -29.1875,-50.24218 0,-2.07032 -1.67969,-3.7461 -3.75,-3.7461 -2.07422,0 -3.75391,1.67578 -3.75391,3.7461 0,22.66015 -16.86719,38.60156 -29.1875,50.24218 -4.65625,4.41016 -8.35156,7.89844 -10.37109,11.08985 -5.35157,8.48437 -2.80469,20.84375 2.94922,27.0625 3.66406,3.96484 8.28515,5.01953 12.42578,2.87109 3.18359,-1.67969 5.33203,-4.19922 6.21093,-7.29297 0.10547,-0.38281 0.19532,-0.76172 0.26172,-1.14062 0.28516,0.75781 0.4336,1.53125 0.5,2.24609 0.42969,4.48047 -2.16797,10.42578 -7.26562,12.60938 -3.8086,1.63281 -10.41406,2.21875 -16.48047,-1.50391 -7.12109,-4.36328 -11.33203,-13.37109 -12.16797,-26.07422 -1.89062,-28.64062 16.89453,-57.3125 18.69922,-59.99609 4.00391,-4.57422 6.78906,-9.2461 7.9375,-13.53907 0.53516,-2.0039 -0.65625,-4.05078 -2.66016,-4.58984 -1.98047,-0.51953 -4.05078,0.65234 -4.58984,2.65625 -0.85156,3.19141 -2.98828,6.72656 -6.07422,10.28125 -0.23047,0.19922 -0.44141,0.42969 -0.625,0.69141 -0.0117,0.0195 -0.0312,0.0469 -0.0547,0.0781 -9.03125,9.96485 -25.38281,19.84375 -41.98828,22.25781 -14.613279,2.1211 -24.234372,6.58204 -29.398435,13.65235 -3.613281,4.91797 -4.867187,10.95312 -3.710937,17.92187 0.867187,5.26563 3.789062,7.8125 6.089843,9.03516 3.527344,1.85547 7.867188,1.79687 11.722657,1.14062 -1.167969,0.8711 -2.382813,1.46485 -3.328126,1.84375 -5.707031,2.32422 -12.492187,1.51563 -16.898437,-1.99218 -4.496094,-3.57032 -6.214844,-9.63282 -4.972656,-17.51172 4.347656,-27.39844 34.847656,-46.59375 39.375001,-49.30469 9.83203,-2.39062 16.55469,-5.11719 17.30859,-5.42969 1.91407,-0.78906 2.82032,-2.98437 2.03125,-4.89843 -0.79297,-1.91407 -2.98828,-2.83204 -4.90234,-2.03125 -0.48828,0.21484 -49.425782,20.01171 -78.933595,-1.71094 -17.070313,-12.5625 -20.175781,-32.46094 -15.847656,-45.63281 2.628906,-7.96485 7.71875,-12.71875 13.617187,-12.71875 4.160156,0 7.21875,1.10937 9.347656,3.38671 0.01172,0.0156 0.03125,0.0352 0.05078,0.0586 -5.585938,-1.40625 -10.773438,0.99609 -14.398438,6.60937 -4.640625,7.21485 -0.878906,20.4336 8.378906,29.45703 11.058594,10.77735 25.515626,11.88282 38.683594,2.9336 25.113286,-17.08203 52.257816,-6.75391 52.531256,-6.64453 1.95312,0.76953 4.10546,-0.19532 4.86328,-2.10938 0.76562,-1.92578 -0.1836,-4.10156 -2.09766,-4.86328 -0.81641,-0.32422 -13.35937,-5.14844 -29.77734,-3.44922 -10.167973,-4.98437 -13.554692,-21.5625 -16.82813,-37.60156 -1.574218,-7.70703 -3.203124,-15.66406 -5.605468,-22.26172 -3.644532,-10.02734 -11.253906,-15.3789 -20.464844,-14.42187 -8.636719,0.94922 -16.390625,7.38281 -17.296875,14.34375 -0.429687,3.32812 0.386719,6.40234 2.359375,8.89453 0.375,0.45703 0.773438,0.88672 1.195312,1.28906 -1.273437,-0.57813 -2.441406,-1.40625 -3.429687,-2.39063 -4.863281,-4.88671 -5.941406,-14.12109 2.636719,-23.73828 6.371094,-7.13281 15.882812,-9.94921 25.496094,-7.60546 13.527343,3.35937 24.242187,16.12109 28.679687,34.15234 10.234377,41.66015 43.542967,40.625 43.933597,40.67578 1.4375,-0.0703 2.71484,-0.96094 3.28125,-2.28516 0.57031,-1.32812 0.3164,-2.87109 -0.63281,-3.94531 -0.29297,-0.33203 -28.40625,-32.86328 -20.83594,-83.152342 7.32812,-48.699219 61.51953,-46.171876 64.23437,-46.0625 2.36328,-0.07031 56.44922,-2.734376 63.78516,46.0625 7.57031,50.289062 -20.54297,82.820312 -20.83594,83.152342 -0.94922,1.07422 -1.20312,2.61719 -0.63281,3.94531 0.56641,1.32422 1.84375,2.21485 3.28125,2.28516 0.41016,-0.0312 33.69922,0.98437 43.93359,-40.67578 4.4375,-18.03125 15.15235,-30.79297 28.67969,-34.15234 9.60547,-2.39063 19.125,0.47265 25.49609,7.60546 8.57813,9.61719 7.5,18.85157 2.63672,23.73828 -0.98828,0.98438 -2.16015,1.8125 -3.42968,2.39063 0.42187,-0.40234 0.82031,-0.83203 1.1914,-1.28906 1.97656,-2.49219 2.79297,-5.56641 2.36328,-8.90625 -0.90625,-6.94922 -8.66406,-13.38281 -17.29687,-14.33203 -9.3086,-0.95703 -16.82422,4.39453 -20.47266,14.42187 -2.40234,6.59766 -4.02344,14.54688 -5.59765,22.24219 -3.27344,16.05859 -6.66407,32.64062 -16.84375,37.625 -16.41016,-1.69141 -28.94532,3.125 -29.76172,3.44531 -1.91407,0.76172 -2.85938,2.9375 -2.09766,4.86328 0.76953,1.91406 2.92188,2.89063 4.86328,2.10938 0.26563,-0.10938 27.39844,-10.4375 52.53125,6.64453 13.16797,8.94922 27.625,7.84375 38.6836,-2.9336 9.25781,-9.02343 13.01953,-22.24218 8.3789,-29.44531 -3.625,-5.63672 -8.8125,-8.04687 -14.39844,-6.62109 0.0195,-0.0234 0.0391,-0.043 0.0508,-0.0586 2.1289,-2.27734 5.1875,-3.38671 9.34765,-3.38671 5.89844,0 10.98828,4.7539 13.61719,12.71875 4.32812,13.17187 1.21875,33.07031 -15.84766,45.63281 z m 22.96485,-47.96485 c -3.67969,-11.19921 -11.42578,-17.88671 -20.73438,-17.88671 -6.28906,0 -11.30078,1.96093 -14.875,5.82812 -6.11719,6.58984 -5.44531,16.27734 -5.41406,16.6875 0.15625,1.96094 1.78516,3.57422 3.74219,3.57422 0.0391,0 0.0898,0 0.13672,0 2.01171,-0.0781 3.59375,-1.625 3.59375,-3.63281 0.26562,-1.02735 2.8125,-3.86719 5.70312,-4.33594 0.78516,-0.13672 3.22266,-0.51563 5.80469,3.49609 2.36328,3.66797 -0.3125,13.21875 -7.3086,20.02344 -3.98437,3.89453 -14.84765,11.89063 -29.22265,2.09766 -6.64844,-4.51172 -13.36719,-7.34766 -19.76953,-9.03516 8.21484,-8.60547 11.2539,-23.46484 14.21093,-37.94531 1.58204,-7.76953 3.07422,-15.10156 5.29297,-21.1875 3.15235,-8.6875 8.65625,-9.95703 12.60157,-9.52734 5.51562,0.61718 10.26562,4.72656 10.67578,7.85156 0.17578,1.32812 -0.0781,2.35156 -0.79297,3.25 -1.88281,2.39062 -6.51563,3.3789 -7.98828,3.53515 -1.48438,0.15625 -2.73438,1.16797 -3.1875,2.58594 -0.44532,1.41797 -0.0274,2.96875 1.08593,3.95313 6.88672,6.0664 16.76172,5.54687 23.51172,-1.19922 7.11328,-7.13672 9.40625,-20.82422 -2.34375,-34.00391 -8.2539,-9.26953 -20.53515,-12.976561 -32.90625,-9.902342 -16.27343,4.042972 -29.05078,18.855472 -34.16015,39.628902 -5.76563,23.48047 -19.3125,31.22266 -28.14063,33.75391 8.4961,-12.91797 23.10156,-41.87891 17.10156,-81.777344 -8.35156,-55.515625 -70.99218,-52.507812 -71.20703,-52.429687 -0.64453,-0.07813 -63.29687,-3.09375 -71.65625,52.429687 -5.98828,39.812504 8.54688,68.742184 17.05078,81.699214 -8.83593,-2.60937 -22.37499,-10.41015 -28.08984,-33.67578 -5.109374,-20.77343 -17.886718,-35.58593 -34.160155,-39.628902 -12.371094,-3.09375 -24.652344,0.625 -32.90625,9.902342 -11.75,13.17969 -9.457031,26.86719 -2.34375,34.00391 6.730469,6.74609 16.625,7.26562 23.511719,1.19922 1.113281,-0.98438 1.53125,-2.53516 1.085937,-3.95313 -0.453125,-1.41797 -1.703125,-2.42969 -3.1875,-2.58594 -1.472656,-0.15625 -6.105469,-1.14453 -7.988281,-3.53515 -0.714844,-0.89844 -0.96875,-1.92188 -0.792969,-3.24219 0.410157,-3.13281 5.160157,-7.24219 10.675781,-7.85937 3.925782,-0.46875 9.4375,0.83984 12.59375,9.52734 2.214844,6.09375 3.71875,13.42578 5.300782,21.19922 2.957031,14.46875 5.992187,29.32422 14.207031,37.92578 -6.40625,1.69531 -13.117187,4.53125 -19.765625,9.04297 -14.386719,9.8125 -25.230469,1.80468 -29.222656,-2.09766 C 35,190.62109 32.324219,181.07031 34.6875,177.40234 c 2.582031,-4.01172 5.019531,-3.61328 5.804688,-3.49609 2.890624,0.46875 5.4375,3.30859 5.683593,4.10156 0,2.01172 1.589844,3.67188 3.601563,3.75 1.886718,-0.10937 3.726562,-1.45703 3.890625,-3.45703 0.03125,-0.41016 0.703125,-10.09766 -5.414063,-16.6875 -3.574218,-3.86719 -8.585937,-5.82812 -14.875,-5.82812 -9.308594,0 -17.054687,6.6875 -20.734375,17.88671 -5.148437,15.64844 -1.554687,39.23047 18.507813,54 12.042968,8.8711 26.539062,11.71485 40.175781,11.71485 3.929687,0 7.785156,-0.23438 11.492187,-0.63281 -11.511718,9.39453 -26.3125,25.03125 -29.492187,45.08203 -1.671875,10.55468 1.0625,19.27734 7.703125,24.55468 4.09375,3.25391 9.359375,4.94141 14.75,4.94141 3.234375,0 6.523438,-0.60547 9.621094,-1.85156 6.835937,-2.76563 11.261718,-8.11328 12.132812,-14.6875 0.175782,-1.35547 -0.402344,-2.69531 -1.503906,-3.50391 -1.101562,-0.82031 -2.558594,-0.95703 -3.800781,-0.3789 -3.761719,1.74609 -11.046875,3.82421 -14.523438,1.98046 -0.753906,-0.39062 -1.789062,-1.19921 -2.1875,-3.60156 -0.820312,-4.98047 -0.05078,-9.0039 2.355469,-12.29297 3.867188,-5.28125 12.089844,-8.86328 24.42578,-10.65234 11.16797,-1.625 21.94531,-6.07031 30.98828,-11.80859 -5.64453,12.26562 -11.35547,29.42968 -10.1914,47.03515 1.26953,19.25391 9.25,28.01953 15.72656,31.98047 4.59375,2.80469 9.42578,3.84766 13.76172,3.84766 3.72265,0 7.08203,-0.76953 9.59375,-1.84375 7.52343,-3.21875 12.58203,-11.91016 11.78906,-20.23047 -0.68359,-7.03906 -5.34375,-12.15235 -12.47266,-13.69531 -1.46484,-0.32032 -2.96093,0.26171 -3.83203,1.46484 -0.875,1.20703 -0.94531,2.8125 -0.1914,4.09766 0.3789,0.64843 1.66796,3.50781 1.04296,5.70312 -0.19531,0.70313 -0.67578,1.74609 -2.49218,2.70703 -0.35938,0.1836 -1.48438,0.78906 -3.41797,-1.32031 -3.69922,-4.00391 -5.42969,-12.72266 -2.11719,-17.97266 1.52344,-2.39453 5.07813,-5.7539 9.19141,-9.64843 9.11328,-8.60938 21.61718,-20.42188 27.78125,-36.16016 6.16015,15.73828 18.66406,27.55078 27.77734,36.16016 4.11328,3.89453 7.66797,7.2539 9.18359,9.64843 3.32032,5.25 1.58985,13.96875 -2.10937,17.97266 -1.94531,2.11719 -3.05859,1.51562 -3.41797,1.32031 -1.35937,-0.71484 -2.17187,-1.59375 -2.49219,-2.67969 -0.61718,-2.1289 0.55469,-4.87109 1.04297,-5.73046 0.75391,-1.28516 0.6836,-2.89063 -0.1914,-4.09766 -0.8711,-1.20313 -2.36719,-1.77734 -3.83204,-1.46484 -7.1289,1.54296 -11.80078,6.66796 -12.47265,13.70703 -0.80469,8.30859 4.26562,17 11.78906,20.21875 5.44141,2.32422 14.82813,3.20312 23.35547,-2.00391 6.47656,-3.96094 14.45703,-12.72656 15.72656,-31.98047 1.16406,-17.60547 -4.54687,-34.76953 -10.1914,-47.03515 9.04296,5.73828 19.82031,10.18359 30.98828,11.80859 12.33593,1.78906 20.55859,5.37109 24.42968,10.65234 2.40235,3.28907 3.17188,7.3125 2.35157,12.29297 -0.39844,2.40235 -1.4336,3.21094 -2.1875,3.60156 -3.46875,1.84375 -10.76172,-0.23437 -14.52344,-1.98046 -1.24219,-0.57813 -2.6875,-0.44141 -3.80078,0.3789 -1.10156,0.8086 -1.67969,2.14844 -1.50391,3.50391 0.8711,6.57422 5.29688,11.92187 12.13281,14.6875 3.09766,1.24609 6.38672,1.85156 9.6211,1.85156 5.39062,0 10.65625,-1.6875 14.75,-4.94141 6.64062,-5.27734 9.375,-14 7.70312,-24.55468 -3.17968,-20.05078 -17.98047,-35.6875 -29.49218,-45.08203 3.70703,0.39843 7.5625,0.63281 11.49218,0.63281 13.63672,0 28.13282,-2.84375 40.17578,-11.71485 20.0625,-14.76953 23.65625,-38.35156 18.50782,-54"
         fill-opacity="1"
         fill-rule="nonzero"
         id="path5" /><path
         style="fill:#282a36;fill-opacity:1;stroke:none;stroke-width:0.445979;stroke-dasharray:none"
         d="m 249.78584,58.0809 c -9.76079,0.01262 -19.59177,0.444976 -29.08679,2.904936 -16.93233,3.775649 -33.3173,12.290628 -44.04707,26.222096 -10.44055,13.280898 -14.21434,30.404758 -15.10869,46.950448 -2.03946,32.15048 6.53944,65.03205 24.56939,91.78032 1.82955,3.14045 4.95287,5.64249 5.82358,9.25683 -0.19192,2.44611 -2.80695,3.84411 -5.07296,3.29689 -17.9239,-1.02232 -34.68331,-11.46652 -44.30002,-26.50364 -6.52617,-9.41174 -9.60877,-20.577 -12.58486,-31.45594 -4.55093,-15.15051 -13.58288,-29.83257 -27.73069,-37.65187 -11.142003,-6.28452 -25.608472,-7.06741 -36.791954,-0.45688 -7.612232,4.49958 -13.855943,11.74048 -16.465067,20.25183 -1.312609,5.17695 -1.580645,10.93009 1.081466,15.75084 1.596807,3.16776 4.168484,5.94028 7.321291,7.57157 1.807331,0.40664 2.459983,-2.0296 1.23176,-3.08692 -4.055251,-4.8671 -4.291179,-12.32685 -0.603789,-17.47269 4.250167,-6.34639 11.619291,-10.60394 19.088679,-11.41844 5.729549,-0.66087 11.725349,0.59854 16.323265,4.30233 8.245909,6.36078 10.963789,16.97127 13.386309,26.57981 4.14633,16.32343 6.17045,33.24676 12.17156,49.05808 3.06018,7.43433 7.33885,15.38256 14.99411,18.84876 5.45415,-0.11188 10.99176,-0.64889 16.47363,-0.057 8.03487,0.74075 15.9917,1.96258 23.48181,4.98344 2.91033,1.4177 1.99213,6.25426 -1.17295,6.55414 -4.56975,-0.66055 -8.91392,-2.51987 -13.52387,-3.10195 -19.26608,-3.42828 -39.91167,-0.38 -56.64787,10.03247 -7.886492,5.19767 -16.783475,9.88787 -26.496233,9.6685 -10.750758,-0.0288 -21.093312,-5.47979 -28.158007,-13.48411 -6.739639,-7.57012 -12.009267,-17.39752 -11.517723,-27.7867 0.385145,-7.34423 6.038233,-13.91649 12.958634,-16.03771 2.533431,-0.51858 5.279113,0.11102 7.689185,-0.84034 1.434799,-2.15708 -1.667681,-3.35279 -3.152911,-4.32325 -6.466996,-3.10327 -14.861797,-2.91525 -20.412518,2.00247 -8.019407,6.87602 -10.712604,17.94516 -11.005522,28.11324 -0.528099,15.99935 6.058536,32.10351 17.896662,42.93004 12.309513,12.14824 29.784834,17.77934 46.769039,18.6566 12.290521,0.67441 24.637884,-0.22803 36.691704,-2.72757 9.89128,-1.83569 19.55078,-5.03978 29.05998,-8.04386 1.75142,-0.75967 3.85181,-0.2769 4.62268,1.60613 1.2877,2.23322 -0.64737,4.53494 -2.819,5.10021 -7.23123,3.24628 -15.10895,4.63254 -22.48831,7.43327 -6.16414,3.12409 -11.48325,7.67082 -16.90975,11.89651 -13.97956,11.83499 -27.015447,25.98061 -33.14245,43.56968 -2.791192,7.91453 -4.302255,16.6236 -2.468748,24.92011 2.194797,8.68439 10.628152,15.10933 19.545444,15.13071 5.257674,0.30262 10.620784,-0.9391 15.090204,-3.73709 1.50248,-1.36487 -0.4307,-3.3223 -2.08125,-2.74647 -5.40096,0.32804 -11.60442,0.29947 -15.667202,-3.87239 -4.769081,-4.14624 -5.167445,-10.93566 -5.025056,-16.80812 0.03416,-10.30642 7.02832,-19.36121 15.818708,-24.12777 10.28498,-5.84688 21.96023,-7.40963 33.42785,-9.55079 17.84713,-4.10237 34.51403,-13.22244 47.78343,-25.81706 5.54999,-5.30182 10.31151,-11.6119 12.72209,-18.97237 1.19854,-3.52764 7.06424,-2.16186 6.77435,1.51732 -1.58906,7.42281 -6.46762,13.28781 -10.88327,19.24159 -9.69349,15.08245 -17.23752,31.65568 -21.62352,49.06436 -3.7401,15.56552 -4.82677,32.28325 -0.0816,47.75652 2.90732,9.47795 9.5233,18.37281 19.20959,21.5939 6.88903,2.25178 15.15217,1.96415 21.19736,-2.35687 5.4657,-4.19883 8.30185,-11.72173 6.78284,-18.45287 -0.6202,-1.98937 -3.73738,-1.34874 -3.39338,0.73709 -2.07019,5.73607 -8.13381,10.73632 -14.4838,9.6835 -5.97713,-1.2577 -10.08652,-6.6207 -12.5378,-11.89021 -2.95911,-6.83473 -3.55366,-14.76948 -1.52517,-21.9358 2.49989,-7.49907 8.97506,-12.56949 14.23869,-18.01376 13.4135,-12.78958 27.37932,-25.95117 35.08528,-43.15731 3.83885,-8.38955 6.05884,-17.54696 6.07712,-26.78832 0.13181,-2.64184 3.43534,-4.30049 5.54782,-2.56284 2.17954,1.40194 1.40506,4.53471 1.79282,6.73078 0.86587,17.08321 9.7743,32.69004 20.76374,45.35599 9.28398,10.38905 19.74327,19.64382 29.24666,29.8166 4.31302,4.68993 6.67957,11.08025 6.25089,17.46076 0.26564,6.98957 -2.31309,13.95638 -6.45416,19.2455 -3.36539,4.38686 -9.49158,7.64796 -14.90331,4.99172 -4.29961,-1.94568 -7.57203,-5.89616 -8.7994,-10.43173 -0.98326,-1.68047 -3.23377,-0.39251 -3.07908,1.28404 -1.98502,9.96284 5.85515,20.78709 16.12854,21.44438 8.87322,1.17721 18.14793,-2.38316 23.85366,-9.30648 7.9316,-9.14308 10.04586,-21.73516 10.5206,-33.45682 0.44016,-22.50914 -7.16984,-44.37532 -17.38774,-64.14755 -3.45371,-6.72907 -7.46626,-13.1673 -12.22415,-19.05209 -2.70695,-4.02153 -5.33951,-8.24897 -6.12351,-13.11154 0.17034,-3.06696 4.45785,-4.65929 6.30517,-2.0048 1.72615,3.70073 3.02067,7.6555 5.57591,10.92509 7.55435,10.26308 17.79738,18.28641 28.94529,24.3348 10.79139,6.0913 22.68765,10.13766 34.96103,11.85726 11.00629,1.85631 22.24678,4.89397 30.97971,12.24648 6.34709,5.38764 10.37472,13.69317 9.70679,22.09783 0.11483,5.35799 -0.89008,11.31782 -5.28684,14.89415 -4.49439,4.19114 -11.09258,3.75493 -16.76632,3.43328 -2.31049,0.20037 -1.57638,3.153 0.30965,3.47556 4.29799,2.26285 9.16335,3.66091 14.05537,3.08284 9.09433,-0.004 17.82111,-6.63101 19.69298,-15.63161 2.37406,-11.16925 -1.24412,-22.62618 -6.10259,-32.6269 -8.57973,-17.02421 -22.6795,-30.61033 -37.91209,-41.7459 -4.28749,-3.03694 -8.6245,-6.34436 -13.93423,-7.28601 -6.29549,-1.87121 -12.69905,-3.61267 -18.69856,-6.29929 -2.67978,-1.48281 -1.85939,-6.09069 1.22392,-6.40646 4.43409,0.43789 8.45502,2.7259 12.76072,3.78207 16.5471,4.94904 33.81372,8.17719 51.14676,7.42633 14.9292,0.0608 29.99708,-3.94916 42.56035,-12.09906 13.74761,-8.83569 23.25961,-23.81638 25.56111,-39.9737 0.44762,-5.87311 0.69473,-11.85547 -0.18425,-17.69617 -1.65357,-8.65209 -5.61984,-17.77464 -13.69314,-22.18736 -6.4948,-3.4195 -15.00628,-2.09076 -20.52432,2.59748 -1.59786,1.76216 0.95045,3.26699 2.62101,2.6631 3.59323,-0.15364 7.46469,-0.043 10.3677,2.40051 4.96897,3.59363 8.581,9.59593 7.86168,15.88218 0.0102,9.39926 -4.86853,18.04481 -10.78982,25.04099 -8.10528,9.46179 -20.74858,15.52751 -33.33266,13.76107 -8.36333,-0.85973 -15.65207,-5.32174 -22.58535,-9.73227 -11.87222,-7.22513 -25.79384,-11.09198 -39.70247,-10.8587 -9.50338,-0.2104 -19.0282,1.10624 -28.04361,4.1514 -3.14643,1.41598 -6.23522,-3.08172 -3.92987,-5.55566 3.42566,-2.44205 7.82207,-2.95409 11.81345,-3.99929 9.44315,-1.93066 19.12325,-2.64215 28.76077,-1.63544 6.6995,-2.78915 10.99468,-9.34203 13.96324,-15.72107 6.50046,-14.75407 8.55347,-30.96947 12.22261,-46.49577 2.24254,-8.98516 3.86787,-18.5038 9.06061,-26.36647 4.43396,-6.51793 12.05017,-10.98061 20.05977,-10.54131 8.42442,0.36961 16.90817,4.83666 21.34779,12.11337 3.13065,5.13257 3.18174,12.23178 -0.84101,16.91334 -1.48903,1.4388 0.53571,3.90656 2.18711,2.59029 5.6544,-3.57265 8.94347,-10.36064 8.31325,-17.01266 -0.26465,-8.32521 -5.30605,-15.70918 -11.06836,-21.36242 -9.59986,-9.25514 -24.54937,-11.5898 -36.87623,-6.96381 -13.65155,4.86013 -23.87197,16.49852 -29.72293,29.45866 -5.41305,10.68591 -6.44854,22.96947 -11.96864,33.62073 -6.6549,14.48109 -18.63017,26.74359 -33.82537,32.11799 -5.66852,1.88764 -11.66211,3.47637 -17.67722,3.13527 -2.57793,-0.48663 -3.5747,-3.93301 -1.71139,-5.76934 5.87568,-7.88817 11.17836,-16.23079 15.29175,-25.18444 9.59811,-20.36298 14.67932,-42.88318 14.24826,-65.41818 -0.0345,-18.02394 -2.75842,-36.95071 -13.23845,-52.089913 -10.4684,-15.517293 -27.91892,-24.936768 -45.8539,-29.006348 -9.55331,-2.309786 -19.33566,-3.083995 -29.14541,-2.882909 z m 11.9314,102.33211 c 2.9628,0.14803 3.91652,4.03266 2.29624,6.13135 -0.78797,1.73475 1.17075,2.73095 2.6406,2.39753 19.46396,0.3554 39.08439,0.005 58.45141,0.2751 0.65843,5.15472 0.0353,10.3931 -1.23503,15.42411 -2.59385,8.00627 -7.93508,15.14412 -15.25095,19.4043 -7.46519,4.58697 -16.43333,6.35545 -25.05451,5.05609 -1.71434,-0.53094 -3.00115,1.68918 -1.62599,2.88598 3.74262,4.46756 5.90378,10.47054 5.89284,16.17428 -0.74732,-3.55604 -1.05651,-7.29771 -2.78044,-10.59117 -1.45722,-2.88858 -3.3039,-5.81882 -5.90722,-7.73493 -2.31387,0.0352 -1.68752,3.02093 -3.02418,4.27882 -1.5964,1.38862 -1.20036,3.36304 0.21237,4.69832 2.78631,4.6556 4.13195,10.24373 3.76258,15.5901 -0.32572,-0.16464 -0.19261,-1.95942 -0.27379,-2.72425 -0.39641,-4.99965 -1.85872,-10.092 -4.80113,-14.17286 -1.68461,-1.34537 -3.44937,0.93015 -5.22677,1.23514 -5.29334,1.36232 -9.21467,5.8157 -14.83535,6.21238 -6.25019,1.00248 -12.94768,0.0148 -18.12172,-3.81963 -2.84812,-2.03173 -6.46573,-2.26311 -9.4233,-4.07278 -2.75636,-0.90918 -3.7462,2.59228 -4.73035,4.39709 -1.94839,4.06127 -2.3312,8.80151 -2.82423,13.07886 -0.44425,-2.9494 0.33853,-5.96472 0.9168,-8.88892 0.73829,-3.4458 2.63497,-6.47919 4.41076,-9.42923 0.3494,-1.92849 -1.67739,-3.46907 -1.68521,-5.44468 -0.8728,-2.04383 -3.30218,-0.77474 -4.18472,0.56393 -4.43653,4.238 -6.35725,10.33788 -6.95927,16.28798 -0.37929,1.48203 -0.31192,-0.93463 -0.17382,-1.31083 0.5501,-5.6375 2.89252,-11.09514 6.67687,-15.27986 0.94904,-1.95796 -1.72145,-2.59262 -3.10052,-1.85434 -12.40953,1.66408 -25.62045,-3.21254 -33.51105,-13.08606 -5.18204,-6.23076 -7.76771,-14.52118 -7.44611,-22.65849 -0.001,-1.3598 -0.002,-2.72331 0.12743,-4.0782 20.04969,-0.57775 40.12333,0.12367 60.16999,-0.53322 2.34151,-0.24411 1.4492,-2.89373 0.67109,-4.22981 -0.81422,-3.19043 3.86121,-5.63544 5.95558,-3.01699 1.66861,2.73015 3.09076,6.27472 6.59465,7.04619 4.1489,1.23123 8.67891,-1.53213 9.73711,-5.67655 0.62803,-1.42633 2.03374,-2.61845 3.65934,-2.53475 z"
         id="path2"
         transform="matrix(0.75000002,0,0,0.75000002,0.187683,-4.6875001e-6)" /></g></g><g
     inkscape:groupmode="layer"
     id="layer1"
     inkscape:label="Image 1"><g
       id="g3"
       transform="matrix(0.21332897,0,0,0.21332897,196.82455,144.04423)"><path
         d="m 320.293,110.14807 c 0.746,-1.634 1.42,-3.236 2.003,-4.779 2.263,-3.588 3.585,-7.829 3.564,-12.39 -0.057,-12.671 -10.677,-23.119 -23.348,-22.977 -11.242,0.126 -20.534,8.297 -22.44,19.022 -2.14,6.085 -9.414,21.272 -28.671,21.272 -9.615,0 -17.073,-3.582 -23.469,-11.274 -3.142,-3.778 -5.27,-7.71 -6.555,-10.498 -2.113,-10.547 -11.411,-18.498 -22.574,-18.524 -12.436,-0.029 -22.473,9.466 -23.107,21.886 -0.258,5.051 1.129,9.755 3.644,13.663 0.642,1.491 1.365,3.031 2.153,4.598 H -102 c -4.418,0 -8,3.582 -8,8 v 28.56 c 0,44.976 18.511,87.134 52.124,118.708 32.983,30.983 76.678,48.046 123.036,48.046 17.982,0 35.559,-2.578 52.27,-7.53 0.584,11.715 4.103,19.725 4.442,20.468 0.546,1.197 1.188,2.346 1.92,3.439 11.304,16.884 27.351,27.047 46.405,29.395 5.253,0.649 21.19,12.795 27.14,16.364 3.342,2.006 21.609,12.01 53.012,12.01 30.231,0 47.501,-7.511 50.656,-9.017 6.503,-3.104 28.751,-19.004 31.602,-19.356 19.053,-2.348 35.101,-12.511 46.405,-29.395 0.733,-1.093 1.374,-2.242 1.921,-3.439 0.327,-0.718 3.619,-8.215 4.371,-19.278 15.446,4.172 31.586,6.339 48.066,6.339 46.358,0 90.053,-17.063 123.036,-48.046 33.613,-31.574 52.124,-73.732 52.124,-118.708 v -28.56 c 0,-4.418 -3.582,-8 -8,-8 H 320.293 Z"
         id="path3-3"
         style="fill:#9c5cf7;fill-opacity:1" /><path
         fill="#ffffff"
         d="m 228.89,206.57407 c 6.611,-16.402 10.475,-33.844 11.364,-51.82 3.599,0.521 7.356,0.807 11.284,0.807 2.413,0 4.753,-0.111 7.034,-0.305 0.922,17.549 4.687,34.58 11.069,50.629 -13.177,-1.71 -28.015,-1.475 -40.751,0.689 z"
         id="path4-5"
         style="fill:#282a36;fill-opacity:1" /><g
         id="g6"
         transform="translate(-250.735,-291.92493)">&#10;	<path
   fill="#ffffff"
   d="m 374.154,438.632 c -1.822,26.811 -24.132,47.998 -51.405,47.998 -27.273,0 -49.584,-21.187 -51.405,-47.998 H 181.37 c -2.265,0 -4.081,1.882 -4.006,4.146 2.331,69.986 63.461,126.049 138.532,126.049 75.07,0 136.201,-56.063 138.532,-126.049 0.075,-2.264 -1.74,-4.146 -4.006,-4.146 z"
   id="path5-6"
   style="fill:#282a36;fill-opacity:1" />&#10;	<path
   fill="#ffffff"
   d="m 625.846,438.632 c 1.822,26.811 24.133,47.998 51.405,47.998 27.273,0 49.584,-21.187 51.405,-47.998 h 89.974 c 2.266,0 4.081,1.882 4.006,4.146 -2.331,69.986 -63.461,126.049 -138.532,126.049 -75.07,0 -136.201,-56.063 -138.532,-126.049 -0.075,-2.264 1.74,-4.146 4.006,-4.146 z"
   id="path6"
   style="fill:#282a36;fill-opacity:1" />&#10;</g><path
         fill="#ffffff"
         d="m 249.226,261.09207 c -3.076,-14.71 -22.889,-21.334 -31.213,-23.493 -1.559,-0.404 -1.764,-2.497 -0.336,-3.242 13.255,-6.92 49.921,-6.92 63.176,0 1.428,0.745 1.223,2.838 -0.336,3.242 -8.324,2.159 -28.137,8.783 -31.213,23.493 z"
         id="path9"
         style="fill:#282a36;fill-opacity:1" /><path
         fill="#ffffff"
         d="m 208.95,354.69707 c 0,0 9.536,-8.063 41.526,-8.063 31.99,0 39.104,9.96 39.104,9.96 0,0 -13.913,6.64 -40.157,6.64 -26.244,0.001 -40.473,-8.537 -40.473,-8.537 z"
         id="path10"
         style="fill:#282a36;fill-opacity:1" /><path
         fill="#ffffff"
         d="m 339.856,266.47807 c -28.458,-24.189 -31.778,-25.612 -31.778,-25.612 0,0 -0.485,24.663 -27.515,24.663 0,0 -3.315,18.498 -31.298,18.498 -27.983,0 -31.298,-18.498 -31.298,-18.498 -27.029,0 -27.514,-24.663 -27.514,-24.663 0,0 -3.32,1.423 -31.778,25.612 -28.458,24.189 -16.768,49.801 -16.768,49.801 33.982,50.75 107.358,-15.651 107.358,-15.651 0,0 73.376,66.401 107.358,15.652 0,0 11.69,-25.612 -16.767,-49.802 z"
         id="path11"
         style="fill:#282a36;fill-opacity:1" /><g
         id="g15"
         transform="translate(-250.735,-291.92493)">&#10;	<path
   d="m 322.93,693.112 c -0.094,0 -0.189,-0.002 -0.283,-0.005 -3.843,-0.155 -6.834,-3.393 -6.68,-7.237 2.07,-51.759 27.694,-81.242 48.826,-96.861 22.805,-16.855 45.001,-21.437 45.934,-21.622 3.773,-0.767 7.44,1.692 8.195,5.463 0.753,3.767 -1.687,7.433 -5.453,8.191 -0.343,0.071 -20.576,4.364 -40.841,19.499 -26.887,20.078 -41.267,48.976 -42.745,85.889 -0.15,3.745 -3.236,6.683 -6.953,6.683 z"
   id="path12"
   style="fill:#9c5cf7;fill-opacity:1;stroke:#9c5cf7;stroke-opacity:1" />&#10;	<path
   d="m 358.97,722.833 c -3.799,0 -6.905,-3.05 -6.961,-6.862 -1.32,-89.731 60.515,-115.961 63.148,-117.034 3.562,-1.45 7.626,0.26 9.077,3.822 1.448,3.553 -0.253,7.608 -3.8,9.067 v 0 c -2.274,0.945 -55.674,24.067 -54.499,103.941 0.057,3.846 -3.015,7.008 -6.861,7.066 -0.035,0 -0.07,0 -0.104,0 z"
   id="path13"
   style="fill:#9c5cf7;fill-opacity:1;stroke:#9c5cf7;stroke-opacity:1" />&#10;	<path
   d="m 677.07,693.112 c -3.718,0 -6.804,-2.938 -6.953,-6.685 -1.476,-36.913 -15.857,-65.81 -42.745,-85.889 -20.337,-15.187 -40.642,-19.458 -40.844,-19.499 -3.762,-0.768 -6.2,-4.439 -5.44,-8.203 0.762,-3.766 4.42,-6.214 8.184,-5.451 0.933,0.185 23.13,4.767 45.936,21.622 21.131,15.619 46.755,45.103 48.826,96.861 0.153,3.844 -2.838,7.083 -6.68,7.237 -0.096,0.005 -0.191,0.007 -0.284,0.007 z"
   id="path14"
   style="fill:#9c5cf7;fill-opacity:1;stroke:#9c5cf7;stroke-opacity:1" />&#10;	<path
   d="m 641.029,722.833 c -0.034,0 -0.07,0 -0.104,0 -3.846,-0.058 -6.918,-3.22 -6.862,-7.066 1.182,-80.321 -53.92,-103.704 -54.476,-103.932 -3.562,-1.45 -5.274,-5.514 -3.822,-9.075 1.45,-3.563 5.515,-5.272 9.075,-3.822 2.633,1.073 64.469,27.302 63.15,117.034 -0.055,3.811 -3.163,6.861 -6.961,6.861 z"
   id="path15"
   style="fill:#9c5cf7;fill-opacity:1;stroke:#9c5cf7;stroke-opacity:1" />&#10;</g></g></g></svg>
